<svg width="20" height="20" viewBox="0 0 20 20" fill="none" xmlns="http://www.w3.org/2000/svg">
<path d="M2.64166 6.2002L9.99999 10.4585L17.3083 6.22517" stroke="#666666" stroke-width="1.5" stroke-linecap="round" stroke-linejoin="round"/>
<path d="M10 18.0085V10.4502" stroke="#666666" stroke-width="1.5" stroke-linecap="round" stroke-linejoin="round"/>
<path d="M8.27498 2.06675L3.82499 4.54177C2.81665 5.10011 1.99167 6.50009 1.99167 7.65009V12.3584C1.99167 13.5084 2.81665 14.9084 3.82499 15.4668L8.27498 17.9418C9.22498 18.4668 10.7833 18.4668 11.7333 17.9418L16.1833 15.4668C17.1917 14.9084 18.0167 13.5084 18.0167 12.3584V7.65009C18.0167 6.50009 17.1917 5.10011 16.1833 4.54177L11.7333 2.06675C10.775 1.53341 9.22498 1.53341 8.27498 2.06675Z" stroke="#666666" stroke-width="1.5" stroke-linecap="round" stroke-linejoin="round"/>
<path d="M14.1667 11.0334V7.98345L6.25833 3.41675" stroke="#666666" stroke-width="1.5" stroke-linecap="round" stroke-linejoin="round"/>
</svg>
