<svg width="145" height="140" viewBox="0 0 145 140" fill="none" xmlns="http://www.w3.org/2000/svg">
<g clip-path="url(#clip0_366_5990)">
<path d="M69.1317 36.1308H59.325C58.9155 36.1043 58.5314 35.9229 58.2507 35.6235C57.97 35.3241 57.8138 34.9291 57.8138 34.5188C57.8138 34.1084 57.97 33.7134 58.2507 33.414C58.5314 33.1146 58.9155 32.9332 59.325 32.9067H69.1317C69.5413 32.9332 69.9254 33.1146 70.206 33.414C70.4867 33.7134 70.6429 34.1084 70.6429 34.5188C70.6429 34.9291 70.4867 35.3241 70.206 35.6235C69.9254 35.9229 69.5413 36.1043 69.1317 36.1308Z" fill="#D68572"/>
<g opacity="0.7">
<path d="M69.1317 36.1308H59.325C58.9155 36.1043 58.5314 35.9229 58.2507 35.6235C57.97 35.3241 57.8138 34.9291 57.8138 34.5188C57.8138 34.1084 57.97 33.7134 58.2507 33.414C58.5314 33.1146 58.9155 32.9332 59.325 32.9067H69.1317C69.5413 32.9332 69.9254 33.1146 70.206 33.414C70.4867 33.7134 70.6429 34.1084 70.6429 34.5188C70.6429 34.9291 70.4867 35.3241 70.206 35.6235C69.9254 35.9229 69.5413 36.1043 69.1317 36.1308Z" fill="white"/>
</g>
<path d="M105.108 69.1856L67.5096 138.378C67.2764 138.805 66.8831 139.122 66.4162 139.26C65.9493 139.397 65.4469 139.344 65.0193 139.112L1.04331 104.327C0.616112 104.094 0.298931 103.7 0.161383 103.234C0.0238355 102.767 0.0771626 102.264 0.309656 101.837L49.2087 11.8597C49.442 11.4325 49.8352 11.1153 50.3021 10.9777C50.769 10.8402 51.2714 10.8935 51.6991 11.126L94.776 34.5491L105.108 69.1856Z" fill="#D68572"/>
<g opacity="0.2">
<path d="M105.108 69.1856L67.5096 138.378C67.2764 138.805 66.8831 139.122 66.4162 139.26C65.9493 139.397 65.4469 139.344 65.0193 139.112L1.04331 104.327C0.616112 104.094 0.298931 103.7 0.161383 103.234C0.0238355 102.767 0.0771626 102.264 0.309656 101.837L49.2087 11.8597C49.442 11.4325 49.8352 11.1153 50.3021 10.9777C50.769 10.8402 51.2714 10.8935 51.6991 11.126L94.776 34.5491L105.108 69.1856Z" fill="white"/>
</g>
<path d="M83.997 84.7228L36.218 58.9426L34.6199 61.9044L82.3989 87.6845L83.997 84.7228Z" fill="#D68572"/>
<path d="M77.4718 96.8231L29.6928 71.043L28.0947 74.0047L75.8737 99.7849L77.4718 96.8231Z" fill="#D68572"/>
<path d="M70.9399 108.93L23.1609 83.1497L21.5629 86.1114L69.3419 111.892L70.9399 108.93Z" fill="#D68572"/>
<path d="M94.8635 34.5154L83.5289 55.3808C83.2964 55.8084 83.2431 56.3108 83.3806 56.7777C83.5182 57.2446 83.8354 57.6379 84.2626 57.8711L105.067 69.1788L94.8635 34.5154Z" fill="#D68572"/>
<path opacity="0.7" d="M94.8635 34.5154L83.5289 55.3808C83.2964 55.8084 83.2431 56.3108 83.3806 56.7777C83.5182 57.2446 83.8354 57.6379 84.2626 57.8711L105.067 69.1788L94.8635 34.5154Z" fill="white"/>
<path d="M114.908 66.8567L77.3164 136.049C77.0831 136.476 76.6898 136.793 76.2229 136.931C75.756 137.068 75.2536 137.015 74.826 136.783L10.85 102.025C10.4217 101.793 10.103 101.4 9.96419 100.933C9.82535 100.466 9.87767 99.963 10.1096 99.5346L59.0087 9.53746C59.2408 9.1091 59.6336 8.79047 60.1006 8.65163C60.5676 8.51279 61.0706 8.56511 61.4991 8.79707L104.61 32.2202L114.908 66.8567Z" fill="#D68572"/>
<g opacity="0.5">
<path d="M114.908 66.8567L77.3164 136.049C77.0831 136.476 76.6898 136.793 76.2229 136.931C75.756 137.068 75.2536 137.015 74.826 136.783L10.85 102.025C10.4217 101.793 10.103 101.4 9.96419 100.933C9.82535 100.466 9.87767 99.963 10.1096 99.5346L59.0087 9.53746C59.2408 9.1091 59.6336 8.79047 60.1006 8.65163C60.5676 8.51279 61.0706 8.56511 61.4991 8.79707L104.61 32.2202L114.908 66.8567Z" fill="white"/>
</g>
<path d="M92.5414 81.6981L47.3106 57.2991C47.1437 57.2082 46.9605 57.1513 46.7715 57.1316C46.5825 57.1118 46.3915 57.1297 46.2094 57.1841C46.0273 57.2386 45.8579 57.3285 45.7107 57.4487C45.5635 57.5689 45.4416 57.7171 45.352 57.8846L45.1298 58.2952C45.0388 58.4626 44.9818 58.6464 44.962 58.8359C44.9422 59.0254 44.96 59.2169 45.0144 59.3995C45.0688 59.5821 45.1588 59.7522 45.2791 59.9C45.3994 60.0477 45.5477 60.1703 45.7154 60.2606L90.9462 84.6596C91.2837 84.8413 91.6794 84.8817 92.0466 84.7719C92.4138 84.6621 92.7225 84.4111 92.9049 84.0741L93.127 83.6567C93.2178 83.4898 93.2747 83.3066 93.2945 83.1176C93.3142 82.9286 93.2963 82.7376 93.2419 82.5555C93.1875 82.3735 93.0975 82.204 92.9773 82.0568C92.8571 81.9097 92.7089 81.7877 92.5414 81.6981Z" fill="#D68572"/>
<path d="M86.002 93.8095L40.7701 69.4037C40.0668 69.0242 39.1889 69.2867 38.8094 69.9901L38.5857 70.4048C38.2062 71.1081 38.4687 71.986 39.1721 72.3655L84.4039 96.7713C85.1073 97.1508 85.9851 96.8883 86.3647 96.1849L86.5884 95.7702C86.9679 95.0669 86.7054 94.189 86.002 93.8095Z" fill="#D68572"/>
<path d="M79.4736 105.922L34.2418 81.5165C33.5384 81.137 32.6605 81.3995 32.281 82.1029L32.0573 82.5175C31.6778 83.2209 31.9403 84.0988 32.6437 84.4783L77.8755 108.884C78.5789 109.264 79.4568 109.001 79.8363 108.298L80.06 107.883C80.4395 107.18 80.177 106.302 79.4736 105.922Z" fill="#D68572"/>
<path d="M104.67 32.1934L93.3289 53.0587C93.2132 53.2702 93.1407 53.5024 93.1153 53.7421C93.09 53.9817 93.1124 54.224 93.1812 54.4549C93.2501 54.6859 93.364 54.9009 93.5164 55.0875C93.6688 55.2742 93.8567 55.4288 94.0692 55.5424L114.874 66.8501L104.67 32.1934Z" fill="#D68572"/>
<path opacity="0.7" d="M104.67 32.1934L93.3289 53.0587C93.2132 53.2702 93.1407 53.5024 93.1153 53.7421C93.09 53.9817 93.1124 54.224 93.1812 54.4549C93.2501 54.6859 93.364 54.9009 93.5164 55.0875C93.6688 55.2742 93.8567 55.4288 94.0692 55.5424L114.874 66.8501L104.67 32.1934Z" fill="white"/>
<path d="M102.072 0.471191L105.236 14.5183C93.2548 17.8029 82.5058 29.6625 74.7721 40.8625C71.6071 45.5134 69.0617 50.5568 67.2 55.8654C67.2 55.8654 91.3635 34.0106 104.684 32.7318L104.044 55.9462C104.044 55.9462 117.863 29.0231 144.685 19.1962C144.712 19.1895 122.217 3.00869 102.072 0.471191Z" fill="#D68572"/>
</g>
<defs>
<clipPath id="clip0_366_5990">
<rect width="144.712" height="140" fill="white"/>
</clipPath>
</defs>
</svg>
