<svg width="24" height="24" viewBox="0 0 24 24" fill="none" xmlns="http://www.w3.org/2000/svg">
<g clip-path="url(#clip0_304_5134)">
<path d="M22.3448 1.65523V6.20696H2.92801C1.24636 4.70572 1.41063 2.51965 2.38346 1.55592C2.84716 1.08801 3.47919 0.825656 4.13794 0.827648H21.5173C21.9738 0.829011 22.3435 1.19874 22.3448 1.65523Z" fill="#805333"/>
<path d="M1.65515 10.7587V3.31042C1.65515 4.68161 2.76672 5.79318 4.13791 5.79318H22.3448C23.2589 5.79318 24 6.53423 24 7.44836V19.8621C24 20.7763 23.2589 21.5173 22.3448 21.5173H16.5517L1.65515 10.7587Z" fill="#A56A43"/>
<path d="M16.5517 20.6897V21.9311C16.5517 22.6167 15.9959 23.1725 15.3103 23.1725H1.24138C0.555784 23.1725 0 22.6167 0 21.9311V20.6897H16.5517Z" fill="#F29C1F"/>
<path d="M16.5517 12V18.2069H0V12C0 11.3145 0.555784 10.7587 1.24138 10.7587H15.3103C15.9959 10.7587 16.5517 11.3145 16.5517 12Z" fill="#F29C1F"/>
<path d="M24 12.0001V15.3105H21.5172C20.6031 15.3105 19.8621 14.5694 19.8621 13.6553C19.8621 12.7412 20.6031 12.0001 21.5172 12.0001H24Z" fill="#E4C05C"/>
<path d="M21.5173 14.4828C21.9743 14.4828 22.3449 14.1123 22.3449 13.6552C22.3449 13.1982 21.9743 12.8276 21.5173 12.8276C21.0602 12.8276 20.6897 13.1982 20.6897 13.6552C20.6897 14.1123 21.0602 14.4828 21.5173 14.4828Z" fill="#603E26"/>
<path d="M14.4827 7.86213H13.6551C13.4266 7.86213 13.2413 7.67687 13.2413 7.44834C13.2413 7.21981 13.4266 7.03455 13.6551 7.03455H14.4827C14.7112 7.03455 14.8965 7.21981 14.8965 7.44834C14.8965 7.67687 14.7112 7.86213 14.4827 7.86213Z" fill="#CF976A"/>
<path d="M22.3448 7.86213H16.1379C15.9094 7.86213 15.7241 7.67687 15.7241 7.44834C15.7241 7.21981 15.9094 7.03455 16.1379 7.03455H22.3448C22.5733 7.03455 22.7586 7.21981 22.7586 7.44834C22.7586 7.67687 22.5733 7.86213 22.3448 7.86213Z" fill="#CF976A"/>
<path d="M0 18.207H16.5517V20.6898H0V18.207Z" fill="#464F5D"/>
<path d="M11.1724 14.4828C11.1717 14.7624 11.2429 15.0374 11.3793 15.2815C11.0149 15.9431 10.2488 16.274 9.51728 16.0858C8.78576 15.8977 8.27441 15.2382 8.27441 14.4828C8.27441 13.7275 8.78576 13.068 9.51728 12.8798C10.2488 12.6917 11.0149 13.0226 11.3793 13.6842C11.2429 13.9282 11.1717 14.2033 11.1724 14.4828Z" fill="#E64C3C"/>
<path d="M14.4827 14.4828C14.4815 15.2371 13.9705 15.8951 13.24 16.0831C12.5096 16.2711 11.7444 15.9414 11.3793 15.2815C11.1034 14.7848 11.1034 14.1809 11.3793 13.6842C11.7444 13.0242 12.5096 12.6946 13.24 12.8826C13.9705 13.0705 14.4815 13.7286 14.4827 14.4828Z" fill="#3B97D3"/>
<path d="M2.06892 16.5518H1.65513C1.42659 16.5518 1.24133 16.3666 1.24133 16.138C1.24133 15.9095 1.42659 15.7242 1.65513 15.7242H2.06892C2.29745 15.7242 2.48271 15.9095 2.48271 16.138C2.48271 16.3666 2.29745 16.5518 2.06892 16.5518Z" fill="#D25627"/>
<path d="M4.13789 16.5518H3.7241C3.49556 16.5518 3.3103 16.3666 3.3103 16.138C3.3103 15.9095 3.49556 15.7242 3.7241 15.7242H4.13789C4.36642 15.7242 4.55168 15.9095 4.55168 16.138C4.55168 16.3666 4.36642 16.5518 4.13789 16.5518Z" fill="#D25627"/>
<path d="M6.20686 16.5518H5.79307C5.56453 16.5518 5.37927 16.3666 5.37927 16.138C5.37927 15.9095 5.56453 15.7242 5.79307 15.7242H6.20686C6.43539 15.7242 6.62065 15.9095 6.62065 16.138C6.62065 16.3666 6.43539 16.5518 6.20686 16.5518Z" fill="#D25627"/>
<path d="M22.3448 4.13801V5.79319L4.13789 5.79318C3.85566 5.79394 3.5755 5.74492 3.3103 5.64836V4.13801C3.31167 3.68151 3.68139 3.31179 4.13789 3.31042H21.5172C21.9737 3.31179 22.3434 3.68151 22.3448 4.13801Z" fill="#4FBA6F"/>
<path d="M22.3448 4.96558V5.79316H4.13789C3.85566 5.79392 3.5755 5.7449 3.3103 5.64833V4.96558H22.3448Z" fill="#24AE5F"/>
</g>
<defs>
<clipPath id="clip0_304_5134">
<rect width="24" height="24" fill="white"/>
</clipPath>
</defs>
</svg>
