<svg width="24" height="24" viewBox="0 0 24 24" fill="none" xmlns="http://www.w3.org/2000/svg">
<path d="M20.7719 8.35344V19.6016C20.7719 20.5828 19.9778 21.3734 19.0001 21.3734H6.00833C5.03068 21.3734 4.23656 20.5828 4.23656 19.6016V10.0158H3.31543C2.36953 10.0158 1.6001 9.24639 1.6001 8.29695C1.6001 7.82402 1.7907 7.39694 2.10129 7.08635C2.41188 6.7758 2.84246 6.58167 3.31543 6.58167H19.0001C19.9778 6.58167 20.7719 7.37578 20.7719 8.35344Z" fill="#AA6256"/>
<path d="M18.1213 6.58167C17.8177 7.61576 17.2284 8.56519 16.466 9.33109C16.233 9.56753 15.986 9.78636 15.7178 9.98751C15.4284 10.2028 15.1248 10.4005 14.8001 10.5734C13.9248 11.0393 12.9542 11.311 11.966 11.311C11.6731 11.311 11.3942 11.2899 11.126 11.2405C9.68954 11.0005 8.58484 10.1393 8.02716 8.93576C7.70602 8.24754 7.56483 7.44635 7.64604 6.58167H18.1213Z" fill="#51383C"/>
<path d="M22.4001 12.3143L22.366 12.5543C22.1999 13.4217 21.6002 13.8978 20.7702 14.1655L20.7695 14.1649V11.2339C20.7695 11.2339 22.29 10.9013 22.4001 12.3143Z" fill="#F9A83D"/>
<path d="M10.94 11.3111C9.09786 11.3111 7.48031 10.3672 6.54024 8.93617C5.99217 8.10644 5.67627 7.11312 5.67627 6.04743C5.67627 3.13963 8.03219 0.783691 10.94 0.783691H11.9668V11.3111H10.94Z" fill="#F9A83D"/>
<path d="M17.2351 6.04745C17.2351 7.28821 16.805 8.43382 16.0856 9.33203C15.8953 9.568 15.6898 9.78497 15.4615 9.98665C15.2141 10.2036 14.9477 10.4015 14.6584 10.5728C13.8744 11.0409 12.9533 11.3111 11.9675 11.3111C11.6745 11.3111 11.389 11.2883 11.1112 11.2388C9.63065 10.9991 8.35946 10.1389 7.5678 8.93619C7.01974 8.10646 6.70386 7.11314 6.70386 6.04745C6.70386 4.80668 7.13391 3.66107 7.85325 2.76286C9.68214 0.476761 13.0209 0.111792 15.313 1.98266C16.4853 2.94554 17.2351 4.40704 17.2351 6.04745Z" fill="#FFD06C"/>
<path d="M8.26855 6.04741C8.26855 8.09069 9.92404 9.74615 11.9673 9.74615C14.0106 9.74615 15.6687 8.09069 15.6687 6.04741C15.6687 4.00413 14.0106 2.34863 11.9673 2.34863C9.92404 2.34863 8.26855 4.00413 8.26855 6.04741Z" fill="#F9A83D"/>
<path d="M12.953 5.74896C12.725 5.66841 12.4862 5.61794 12.2514 5.5575C12.2063 5.54593 12.1866 5.53214 12.1873 5.48128C12.1903 5.2404 12.1886 4.99939 12.1889 4.75852C12.1889 4.74025 12.1919 4.72185 12.1939 4.6978C12.4661 4.78598 12.6045 4.96772 12.66 5.21281C12.6781 5.29296 12.757 5.34395 12.8379 5.33015L13.5576 5.20702C13.6427 5.19244 13.7 5.11175 13.6852 5.02673C13.6596 4.87994 13.6123 4.74275 13.536 4.61502C13.2586 4.151 12.7103 3.85887 12.1894 3.74704C12.1891 3.74704 12.1889 3.74691 12.1886 3.74691V3.42259C12.1886 3.33638 12.1188 3.2666 12.0326 3.2666H11.9806C11.8944 3.2666 11.8246 3.33638 11.8246 3.42259V3.74441C11.0453 3.80608 10.3693 4.25197 10.281 5.01661C10.1949 5.76306 10.6564 6.19748 11.3887 6.36476C11.5331 6.39761 11.6778 6.42928 11.8231 6.46174V7.33865C11.5049 7.26532 11.3264 7.07385 11.2501 6.79145C11.2285 6.71182 11.1504 6.66135 11.0694 6.67699L10.3186 6.82181C10.2333 6.83823 10.1774 6.92128 10.1952 7.00631C10.2389 7.21262 10.3262 7.3966 10.462 7.55731C10.8175 7.97796 11.275 8.2103 11.8291 8.2668V8.58377C11.8291 8.66997 11.8988 8.73975 11.985 8.73975H12.0331C12.1193 8.73975 12.1891 8.66997 12.1891 8.58377V8.26089C14.0888 8.08537 14.1467 6.17024 12.953 5.74896ZM11.8237 5.45039C11.5785 5.44869 11.3978 5.30874 11.3861 5.11385C11.3725 4.88598 11.5428 4.712 11.8237 4.67349V5.45039ZM12.1927 7.35166V6.54558C12.9273 6.66926 12.7432 7.26453 12.1927 7.35166Z" fill="#FFD06C"/>
<path d="M12.2149 9.73925C12.135 9.74306 12.0512 9.74687 11.9675 9.74687C9.92367 9.74687 8.26807 8.09127 8.26807 6.04745C8.26807 4.00363 9.92367 2.34802 11.9675 2.34802C12.0512 2.34802 12.135 2.35183 12.2149 2.35564C10.2891 2.48503 8.76665 4.08735 8.76665 6.04745C8.76665 8.0075 10.2891 9.60986 12.2149 9.73925Z" fill="#EA9734"/>
<g opacity="0.2">
<path d="M14.3055 9.65166C14.3762 9.83547 14.2931 10.0391 14.1188 10.1307C13.4761 10.4683 12.7445 10.6603 11.9677 10.6603C11.647 10.6603 11.334 10.6272 11.0328 10.5651C10.9076 10.5393 10.8059 10.4476 10.7601 10.3283L8.20489 3.67393C8.15893 3.55424 8.17333 3.41723 8.24933 3.31397C8.87141 2.46872 9.77795 1.843 10.8296 1.57623C11.0204 1.52784 11.2184 1.62299 11.289 1.8067L14.3055 9.65166Z" fill="white"/>
<path d="M14.9845 8.74418L12.4179 2.06523C12.2225 1.55675 12.995 1.28735 13.1837 1.77858L15.7342 8.41684C15.909 8.87186 15.181 9.2554 14.9845 8.74418Z" fill="white"/>
</g>
<g opacity="0.3">
<path d="M13.1835 1.7789L13.5356 2.69807C13.2273 2.54968 12.8924 2.44691 12.5422 2.39357L12.4163 2.06438C12.2211 1.55401 12.9956 1.28832 13.1835 1.7789Z" fill="white"/>
</g>
<g opacity="0.3">
<g opacity="0.3">
<path d="M14.9842 8.74476L14.8411 8.37287C15.058 8.10642 15.2407 7.80958 15.3777 7.48608L15.7343 8.41702C15.9089 8.87288 15.1803 9.25417 14.9842 8.74476Z" fill="white"/>
</g>
</g>
<path d="M18.6663 11.7867V21.444C18.6663 22.4229 17.8728 23.2164 16.8938 23.2164H3.37257C2.39362 23.2164 1.6001 22.4229 1.6001 21.444V8.29834C1.6001 9.24593 2.3684 10.0142 3.31599 10.0142H16.8938C17.8728 10.0142 18.6663 10.8078 18.6663 11.7867Z" fill="#BF7D5A"/>
<path d="M4.31085 11.8935H3.67555C3.5265 11.8935 3.40552 11.7728 3.40552 11.6236C3.40552 11.4744 3.5265 11.3538 3.67555 11.3538H4.31085C4.4599 11.3538 4.58088 11.4744 4.58088 11.6236C4.58088 11.7728 4.4599 11.8935 4.31085 11.8935Z" fill="#AA6256"/>
<path d="M16.5567 21.8768H15.9964C15.8474 21.8768 15.7264 21.7562 15.7264 21.6069C15.7264 21.4577 15.8474 21.3371 15.9964 21.3371H16.5567C16.6344 21.3371 16.6977 21.2738 16.6977 21.1962V21.1097C16.6977 20.9605 16.8186 20.8398 16.9677 20.8398C17.1167 20.8398 17.2377 20.9605 17.2377 21.1097V21.1962C17.2377 21.5716 16.9322 21.8768 16.5567 21.8768ZM14.7043 21.8768H13.4121C13.2631 21.8768 13.1421 21.7562 13.1421 21.6069C13.1421 21.4577 13.2631 21.3371 13.4121 21.3371H14.7043C14.8533 21.3371 14.9743 21.4577 14.9743 21.6069C14.9743 21.7562 14.8533 21.8768 14.7043 21.8768ZM12.12 21.8768H10.8278C10.6788 21.8768 10.5578 21.7562 10.5578 21.6069C10.5578 21.4577 10.6788 21.3371 10.8278 21.3371H12.12C12.269 21.3371 12.39 21.4577 12.39 21.6069C12.39 21.7562 12.269 21.8768 12.12 21.8768ZM9.53566 21.8768H8.2435C8.09445 21.8768 7.97347 21.7562 7.97347 21.6069C7.97347 21.4577 8.09445 21.3371 8.2435 21.3371H9.53566C9.68471 21.3371 9.80569 21.4577 9.80569 21.6069C9.80569 21.7562 9.68471 21.8768 9.53566 21.8768ZM6.95134 21.8768H5.65919C5.51013 21.8768 5.38915 21.7562 5.38915 21.6069C5.38915 21.4577 5.51013 21.3371 5.65919 21.3371H6.95134C7.1004 21.3371 7.22138 21.4577 7.22138 21.6069C7.22138 21.7562 7.1004 21.8768 6.95134 21.8768ZM16.9677 20.0876C16.8186 20.0876 16.6977 19.9669 16.6977 19.8177V18.5254C16.6977 18.3762 16.8186 18.2555 16.9677 18.2555C17.1167 18.2555 17.2377 18.3762 17.2377 18.5254V19.8177C17.2377 19.9669 17.1167 20.0876 16.9677 20.0876ZM16.9677 17.5032C16.8186 17.5032 16.6977 17.3826 16.6977 17.2334V15.9411C16.6977 15.7919 16.8186 15.6712 16.9677 15.6712C17.1167 15.6712 17.2377 15.7919 17.2377 15.9411V17.2334C17.2377 17.3826 17.1167 17.5032 16.9677 17.5032ZM16.9677 14.9189C16.8186 14.9189 16.6977 14.7983 16.6977 14.6491V13.3567C16.6977 13.2075 16.8186 13.0869 16.9677 13.0869C17.1167 13.0869 17.2377 13.2075 17.2377 13.3567V14.6491C17.2377 14.7983 17.1167 14.9189 16.9677 14.9189ZM16.9677 12.3194C16.8186 12.3194 16.6977 12.214 16.6977 12.0647C16.6977 11.9568 16.6344 11.8935 16.5567 11.8935H15.9403C15.7912 11.8935 15.6703 11.7728 15.6703 11.6236C15.6703 11.4744 15.7912 11.3538 15.9403 11.3538H16.5567C16.9322 11.3538 17.2377 11.659 17.2377 12.0343C17.2377 12.1836 17.1167 12.3194 16.9677 12.3194ZM14.6481 11.8935H13.356C13.2069 11.8935 13.0859 11.7728 13.0859 11.6236C13.0859 11.4744 13.2069 11.3538 13.356 11.3538H14.6481C14.7972 11.3538 14.9182 11.4744 14.9182 11.6236C14.9182 11.7728 14.7972 11.8935 14.6481 11.8935ZM12.0638 11.8935H10.7717C10.6226 11.8935 10.5016 11.7728 10.5016 11.6236C10.5016 11.4744 10.6226 11.3538 10.7717 11.3538H12.0638C12.2129 11.3538 12.3339 11.4744 12.3339 11.6236C12.3339 11.7728 12.2129 11.8935 12.0638 11.8935ZM9.47951 11.8935H8.18735C8.0383 11.8935 7.91732 11.7728 7.91732 11.6236C7.91732 11.4744 8.0383 11.3538 8.18735 11.3538H9.47951C9.62856 11.3538 9.74954 11.4744 9.74954 11.6236C9.74954 11.7728 9.62856 11.8935 9.47951 11.8935ZM6.8952 11.8935H5.60304C5.45399 11.8935 5.33301 11.7728 5.33301 11.6236C5.33301 11.4744 5.45399 11.3538 5.60304 11.3538H6.8952C7.04425 11.3538 7.16523 11.4744 7.16523 11.6236C7.16523 11.7728 7.04425 11.8935 6.8952 11.8935Z" fill="#AA6256"/>
<path d="M4.36456 21.8768H3.72926C3.58021 21.8768 3.45923 21.7561 3.45923 21.6069C3.45923 21.4577 3.58021 21.337 3.72926 21.337H4.36456C4.51361 21.337 4.63459 21.4577 4.63459 21.6069C4.63459 21.7561 4.51361 21.8768 4.36456 21.8768Z" fill="#AA6256"/>
<path d="M22.3998 12.3143V16.3874C22.239 18.1042 20.5666 18.4561 18.6247 18.5642H13.8515C12.7267 18.5642 11.8149 17.6525 11.8149 16.5277C11.8149 15.9653 12.0427 15.4563 12.4114 15.0876C12.7801 14.7189 13.2891 14.4912 13.8515 14.4912H18.6247C19.4116 14.4474 20.1535 14.3637 20.77 14.1656C21.6 13.8979 22.1997 13.4217 22.3657 12.5543C22.3805 12.4778 22.3921 12.3973 22.3998 12.3143Z" fill="#FFD06C"/>
<path d="M14.5787 16.5277C14.5787 16.9517 14.2351 17.296 13.811 17.296C13.3863 17.296 13.0427 16.9517 13.0427 16.5277C13.0427 16.1037 13.3863 15.7594 13.811 15.7594C14.2351 15.7594 14.5787 16.1037 14.5787 16.5277Z" fill="#BF7D5A"/>
<path d="M21.8863 16.246C21.6664 17.1068 20.7096 17.9449 19.4568 17.7768C20.3566 17.5447 21.1406 17.2753 21.8863 16.246Z" fill="#F8F9FE"/>
<path d="M2.64632 14.6425C2.77798 15.5179 2.80823 16.3934 2.81363 17.2688C2.80892 18.1442 2.77878 19.0197 2.64632 19.8951C2.51386 19.0197 2.48371 18.1442 2.479 17.2688C2.48441 16.3934 2.51466 15.5179 2.64632 14.6425Z" fill="#F8F9FE"/>
<path d="M16.4181 5.40599C16.0229 5.63544 15.8268 5.92488 15.7306 6.18576C15.7087 6.24288 15.6278 6.24288 15.6069 6.18576C15.5098 5.92393 15.3108 5.63258 14.9185 5.40599C14.8756 5.38028 14.8756 5.31648 14.9195 5.29173C15.3146 5.06227 15.5117 4.77282 15.6069 4.51194C15.6288 4.45483 15.7097 4.45388 15.7306 4.51194C15.8278 4.77377 16.0277 5.06512 16.419 5.29173C16.4619 5.31744 16.4619 5.38123 16.4181 5.40599Z" fill="white"/>
<path d="M8.15007 3.16055C7.80751 3.35947 7.63749 3.6104 7.5541 3.83656C7.53512 3.88609 7.46497 3.88609 7.44681 3.83656C7.36262 3.60957 7.1901 3.35699 6.85003 3.16055C6.81287 3.13826 6.81287 3.08295 6.85086 3.06149C7.1934 2.86256 7.36427 2.61163 7.44681 2.38547C7.46579 2.33595 7.53596 2.33513 7.5541 2.38547C7.63829 2.61246 7.81164 2.86504 8.1509 3.06149C8.18804 3.08378 8.18804 3.13909 8.15007 3.16055Z" fill="white"/>
<path d="M7.93936 8.77835C7.67302 8.93301 7.54082 9.12811 7.47599 9.30396C7.46123 9.34246 7.40669 9.34246 7.39257 9.30396C7.32711 9.12747 7.19297 8.93109 6.92857 8.77835C6.89968 8.76102 6.89968 8.71802 6.92921 8.70134C7.19554 8.54667 7.32839 8.35157 7.39257 8.17572C7.40733 8.13722 7.46189 8.13658 7.47599 8.17572C7.54145 8.35221 7.67623 8.54859 7.94 8.70134C7.96888 8.71866 7.96888 8.76167 7.93936 8.77835Z" fill="white"/>
</svg>
