<svg width="120" height="120" viewBox="0 0 120 120" fill="none" xmlns="http://www.w3.org/2000/svg">
<path d="M98.3625 38.4306V90.7032H11.243V38.4306L54.8039 12.2954L98.3625 38.4306Z" fill="#FFA001"/>
<path d="M98.3625 38.4306V90.7032H54.8039V12.2954L98.3625 38.4306Z" fill="#F87F02"/>
<path d="M0 38.4308L11.2425 12.2944H54.803L43.5605 38.4308H0Z" fill="#FFDA2D"/>
<path d="M109.606 38.4308L98.3632 12.2944H54.803L66.0455 38.4308H109.606Z" fill="#FCBE00"/>
<path d="M25.2455 68.7988H32.2767V75.8301H25.2455V68.7988Z" fill="#FFDA2D"/>
<path d="M120 81.9925C120 96.1933 108.488 107.706 94.2867 107.706C80.0836 107.706 68.5711 96.1933 68.5711 81.9925C68.5711 67.7894 80.0836 56.2769 94.2867 56.2769C108.488 56.2769 120 67.7891 120 81.9925Z" fill="#83E470"/>
<path d="M120 81.9925C120 96.1933 108.488 107.706 94.2867 107.706V56.2769C108.488 56.2769 120 67.7891 120 81.9925Z" fill="#01B763"/>
<path d="M107.742 77.8275L94.2867 91.2828L91.9547 93.615L80.8289 82.489L85.8024 77.5179L91.9547 83.6703L94.2867 81.3385L102.769 72.8564L107.742 77.8275Z" fill="#F3FDFF"/>
<path d="M107.742 77.8275L94.2867 91.2828V81.3385L102.769 72.8564L107.742 77.8275Z" fill="#D7F3F7"/>
</svg>
