<svg width="24" height="24" viewBox="0 0 24 24" fill="none" xmlns="http://www.w3.org/2000/svg">
<g clip-path="url(#clip0_335_6224)">
<path d="M-142.875 -231.75H40.875V94.5H-142.875V-231.75Z" fill="white"/>
<path d="M5.25 3.375H18.75V19.875H5.25V3.375Z" fill="#EDFCFC"/>
<path d="M6.375 3.375H18.75V19.875H6.375V3.375Z" fill="#D2F0F0"/>
<path d="M5.25 19.875V21.75C5.25 22.2473 5.44754 22.7242 5.79917 23.0758C6.15081 23.4275 6.62772 23.625 7.125 23.625H16.875C17.3723 23.625 17.8492 23.4275 18.2008 23.0758C18.5525 22.7242 18.75 22.2473 18.75 21.75V19.875H5.25Z" fill="#737C88"/>
<path d="M18.75 21.75V19.875H6.375V21.75C6.375 22.2473 6.57254 22.7242 6.92417 23.0758C7.27581 23.4275 7.75272 23.625 8.25 23.625H16.875C17.3723 23.625 17.8492 23.4275 18.2008 23.0758C18.5525 22.7242 18.75 22.2473 18.75 21.75Z" fill="#555D69"/>
<path d="M18.75 2.25C18.7494 1.7529 18.5517 1.27633 18.2002 0.924832C17.8487 0.573331 17.3721 0.375595 16.875 0.375H7.125C6.6279 0.375595 6.15133 0.573331 5.79983 0.924832C5.44833 1.27633 5.2506 1.7529 5.25 2.25V3.375H18.75V2.25Z" fill="#737C88"/>
<path d="M18.75 3.375V2.25C18.7478 1.9383 18.667 1.6322 18.5149 1.36013C18.2428 1.20803 17.9367 1.12715 17.625 1.125H7.875C7.47718 1.125 7.09564 1.28304 6.81434 1.56434C6.53304 1.84564 6.375 2.22718 6.375 2.625V3.375H18.75Z" fill="#555D69"/>
<path d="M8.25 22.125H7.5C7.40054 22.125 7.30516 22.0855 7.23483 22.0152C7.16451 21.9448 7.125 21.8495 7.125 21.75C7.125 21.6505 7.16451 21.5552 7.23483 21.4848C7.30516 21.4145 7.40054 21.375 7.5 21.375H8.25C8.34946 21.375 8.44484 21.4145 8.51517 21.4848C8.58549 21.5552 8.625 21.6505 8.625 21.75C8.625 21.8495 8.58549 21.9448 8.51517 22.0152C8.44484 22.0855 8.34946 22.125 8.25 22.125Z" fill="#3E4145"/>
<path d="M16.5 22.125H15.75C15.6505 22.125 15.5552 22.0855 15.4848 22.0152C15.4145 21.9448 15.375 21.8495 15.375 21.75C15.375 21.6505 15.4145 21.5552 15.4848 21.4848C15.5552 21.4145 15.6505 21.375 15.75 21.375H16.5C16.5995 21.375 16.6948 21.4145 16.7652 21.4848C16.8355 21.5552 16.875 21.6505 16.875 21.75C16.875 21.8495 16.8355 21.9448 16.7652 22.0152C16.6948 22.0855 16.5995 22.125 16.5 22.125Z" fill="#3E4145"/>
<path d="M13.125 22.125H10.875C10.7755 22.125 10.6802 22.0855 10.6098 22.0152C10.5395 21.9448 10.5 21.8495 10.5 21.75C10.5 21.6505 10.5395 21.5552 10.6098 21.4848C10.6802 21.4145 10.7755 21.375 10.875 21.375H13.125C13.2245 21.375 13.3198 21.4145 13.3902 21.4848C13.4605 21.5552 13.5 21.6505 13.5 21.75C13.5 21.8495 13.4605 21.9448 13.3902 22.0152C13.3198 22.0855 13.2245 22.125 13.125 22.125Z" fill="#3E4145"/>
<path d="M13.125 2.25H10.875C10.7755 2.25 10.6802 2.21049 10.6098 2.14016C10.5395 2.06984 10.5 1.97446 10.5 1.875C10.5 1.77554 10.5395 1.68016 10.6098 1.60984C10.6802 1.53951 10.7755 1.5 10.875 1.5H13.125C13.2245 1.5 13.3198 1.53951 13.3902 1.60984C13.4605 1.68016 13.5 1.77554 13.5 1.875C13.5 1.97446 13.4605 2.06984 13.3902 2.14016C13.3198 2.21049 13.2245 2.25 13.125 2.25Z" fill="#3E4145"/>
<path d="M9.375 2.25C9.58211 2.25 9.75 2.08211 9.75 1.875C9.75 1.66789 9.58211 1.5 9.375 1.5C9.16789 1.5 9 1.66789 9 1.875C9 2.08211 9.16789 2.25 9.375 2.25Z" fill="#3E4145"/>
<path d="M18.75 10.875H6.5625C6.29165 10.875 6.02345 10.8217 5.77322 10.718C5.52298 10.6144 5.29561 10.4624 5.10409 10.2709C4.7173 9.88411 4.5 9.35951 4.5 8.8125C4.5 8.4644 4.63828 8.13056 4.88442 7.88442C5.13056 7.63828 5.4644 7.5 5.8125 7.5H17.4375C17.7856 7.5 18.1194 7.63828 18.3656 7.88442C18.6117 8.13056 18.75 8.4644 18.75 8.8125V10.875Z" fill="#BC6155"/>
<path d="M6.1875 9.375C5.93886 9.375 5.7004 9.27623 5.52459 9.10041C5.34877 8.9246 5.25 8.68614 5.25 8.4375C5.25 8.18886 5.34877 7.9504 5.52459 7.77459C5.7004 7.59877 5.93886 7.5 6.1875 7.5H5.8125C5.4644 7.5 5.13056 7.63828 4.88442 7.88442C4.63828 8.13056 4.5 8.4644 4.5 8.8125C4.5 9.35951 4.7173 9.88411 5.10409 10.2709C5.29561 10.4624 5.52298 10.6144 5.77322 10.718C6.02345 10.8217 6.29165 10.875 6.5625 10.875H18.75V9.375H6.1875Z" fill="#A5554A"/>
<path d="M16.1063 8.25005C16.0315 7.41759 15.7045 6.62778 15.1688 5.98617L14.6385 5.45592C13.997 4.92047 13.2073 4.59354 12.375 4.5188H11.625C10.7926 4.59357 10.0028 4.92064 9.36117 5.4563L8.83092 5.98655C8.29547 6.62809 7.96854 7.41776 7.8938 8.25005V9.00005C7.96857 9.83251 8.29564 10.6223 8.8313 11.2639L9.36155 11.7942C10.0031 12.3296 10.7928 12.6566 11.625 12.7313H12.375C13.2075 12.6565 13.9973 12.3295 14.6389 11.7938L15.1692 11.2635C15.7046 10.622 16.0316 9.83234 16.1063 9.00005V8.25005Z" fill="#FFE67B"/>
<path d="M7.94702 9.375C8.07391 10.0703 8.37839 10.721 8.8309 11.2639L9.36115 11.7941C10.0028 12.3296 10.7926 12.6566 11.625 12.7313H12.375C13.2075 12.6565 13.9973 12.3294 14.6389 11.7938L15.1691 11.2635C15.6216 10.7207 15.9261 10.0702 16.053 9.375H7.94702Z" fill="#FFD250"/>
<path d="M12 5.625C12.0995 5.625 12.1948 5.58549 12.2652 5.51516C12.3355 5.44484 12.375 5.34946 12.375 5.25V4.51875C12.2512 4.50788 12.1267 4.5 12 4.5C11.8733 4.5 11.7488 4.50788 11.625 4.51875V5.25C11.625 5.34946 11.6645 5.44484 11.7348 5.51516C11.8052 5.58549 11.9005 5.625 12 5.625Z" fill="#FFD250"/>
<path d="M12 11.625C11.9005 11.625 11.8052 11.6645 11.7348 11.7348C11.6645 11.8052 11.625 11.9005 11.625 12V12.7313C11.7488 12.7421 11.8733 12.75 12 12.75C12.1267 12.75 12.2512 12.7421 12.375 12.7313V12C12.375 11.9005 12.3355 11.8052 12.2652 11.7348C12.1948 11.6645 12.0995 11.625 12 11.625Z" fill="#FFD250"/>
<path d="M9.36106 5.45593C9.16855 5.61619 8.99107 5.79368 8.83081 5.98618L9.34831 6.50368C9.41904 6.57199 9.51376 6.60979 9.61209 6.60894C9.71041 6.60808 9.80446 6.56864 9.87399 6.49911C9.94352 6.42959 9.98296 6.33553 9.98381 6.23721C9.98467 6.13888 9.94687 6.04416 9.87856 5.97343L9.36106 5.45593Z" fill="#FFD250"/>
<path d="M14.1213 10.7464C14.051 10.8167 14.0115 10.9121 14.0115 11.0115C14.0115 11.111 14.051 11.2063 14.1213 11.2766L14.6388 11.7941C14.8313 11.6339 15.0088 11.4564 15.169 11.2639L14.6515 10.7464C14.5812 10.6761 14.4858 10.6366 14.3864 10.6366C14.287 10.6366 14.1916 10.6761 14.1213 10.7464Z" fill="#FFD250"/>
<path d="M9 8.625C9 8.52554 8.96049 8.43016 8.89017 8.35983C8.81984 8.28951 8.72446 8.25 8.625 8.25H7.89375C7.88287 8.37375 7.875 8.49825 7.875 8.625C7.875 8.75175 7.88287 8.87625 7.89375 9H8.625C8.72446 9 8.81984 8.96049 8.89017 8.89017C8.96049 8.81984 9 8.72446 9 8.625Z" fill="#FFD250"/>
<path d="M16.1063 8.25H15.375C15.2755 8.25 15.1802 8.28951 15.1098 8.35983C15.0395 8.43016 15 8.52554 15 8.625C15 8.72446 15.0395 8.81984 15.1098 8.89017C15.1802 8.96049 15.2755 9 15.375 9H16.1063C16.1171 8.87625 16.125 8.75175 16.125 8.625C16.125 8.49825 16.1171 8.37375 16.1063 8.25Z" fill="#FFD250"/>
<path d="M9.34831 10.7464L8.83081 11.2639C8.99107 11.4564 9.16855 11.6339 9.36106 11.7941L9.87856 11.2766C9.94687 11.2059 9.98467 11.1112 9.98381 11.0129C9.98296 10.9145 9.94352 10.8205 9.87399 10.7509C9.80446 10.6814 9.71041 10.642 9.61209 10.6411C9.51376 10.6403 9.41904 10.6781 9.34831 10.7464Z" fill="#FFD250"/>
<path d="M14.6516 6.50368L15.1691 5.98618C15.0089 5.79368 14.8314 5.61619 14.6389 5.45593L14.1214 5.97343C14.0531 6.04416 14.0153 6.13888 14.0161 6.23721C14.017 6.33553 14.0564 6.42959 14.1259 6.49911C14.1955 6.56864 14.2895 6.60808 14.3879 6.60894C14.4862 6.60979 14.5809 6.57199 14.6516 6.50368Z" fill="#FFD250"/>
<path d="M12 7.5C12.0995 7.5 12.1948 7.53951 12.2652 7.60983C12.3355 7.68016 12.375 7.77554 12.375 7.875C12.375 7.97446 12.4145 8.06984 12.4848 8.14017C12.5552 8.21049 12.6505 8.25 12.75 8.25C12.8495 8.25 12.9448 8.21049 13.0152 8.14017C13.0855 8.06984 13.125 7.97446 13.125 7.875C13.124 7.64315 13.0515 7.41726 12.9172 7.22824C12.783 7.03921 12.5936 6.89628 12.375 6.819V6.75C12.375 6.65054 12.3355 6.55516 12.2652 6.48483C12.1948 6.41451 12.0995 6.375 12 6.375C11.9005 6.375 11.8052 6.41451 11.7348 6.48483C11.6645 6.55516 11.625 6.65054 11.625 6.75V6.819C11.375 6.90706 11.1642 7.08075 11.03 7.30932C10.8958 7.5379 10.8468 7.80659 10.8917 8.06782C10.9366 8.32904 11.0726 8.56595 11.2754 8.73656C11.4783 8.90718 11.7349 9.0005 12 9C12.0742 9 12.1467 9.02199 12.2083 9.0632C12.27 9.1044 12.3181 9.16297 12.3465 9.23149C12.3748 9.30002 12.3823 9.37542 12.3678 9.44816C12.3533 9.5209 12.3176 9.58772 12.2652 9.64017C12.2127 9.69261 12.1459 9.72833 12.0732 9.74279C12.0004 9.75726 11.925 9.74984 11.8565 9.72145C11.788 9.69307 11.7294 9.64501 11.6882 9.58334C11.647 9.52167 11.625 9.44917 11.625 9.375C11.625 9.27554 11.5855 9.18016 11.5152 9.10983C11.4448 9.03951 11.3495 9 11.25 9C11.1505 9 11.0552 9.03951 10.9848 9.10983C10.9145 9.18016 10.875 9.27554 10.875 9.375C10.876 9.60685 10.9485 9.83274 11.0828 10.0218C11.217 10.2108 11.4064 10.3537 11.625 10.431V10.5C11.625 10.5995 11.6645 10.6948 11.7348 10.7652C11.8052 10.8355 11.9005 10.875 12 10.875C12.0995 10.875 12.1948 10.8355 12.2652 10.7652C12.3355 10.6948 12.375 10.5995 12.375 10.5V10.431C12.625 10.3429 12.8358 10.1692 12.97 9.94068C13.1042 9.7121 13.1532 9.44341 13.1083 9.18218C13.0634 8.92096 12.9274 8.68405 12.7246 8.51344C12.5217 8.34282 12.2651 8.2495 12 8.25C11.9005 8.25 11.8052 8.21049 11.7348 8.14017C11.6645 8.06984 11.625 7.97446 11.625 7.875C11.625 7.77554 11.6645 7.68016 11.7348 7.60983C11.8052 7.53951 11.9005 7.5 12 7.5Z" fill="#FFD250"/>
<path d="M11.625 10.431V10.5C11.625 10.5995 11.6645 10.6948 11.7348 10.7652C11.8052 10.8355 11.9005 10.875 12 10.875C12.0995 10.875 12.1948 10.8355 12.2652 10.7652C12.3355 10.6948 12.375 10.5995 12.375 10.5V10.431C12.5936 10.3537 12.783 10.2108 12.9172 10.0218C13.0515 9.83274 13.124 9.60685 13.125 9.375H12.375C12.375 9.47446 12.3355 9.56984 12.2652 9.64017C12.1948 9.71049 12.0995 9.75 12 9.75C11.9005 9.75 11.8052 9.71049 11.7348 9.64017C11.6645 9.56984 11.625 9.47446 11.625 9.375H10.875C10.876 9.60685 10.9485 9.83274 11.0828 10.0218C11.217 10.2108 11.4064 10.3537 11.625 10.431Z" fill="#F9B946"/>
<path d="M18.1875 18.75H5.8125C5.4644 18.75 5.13056 18.6117 4.88442 18.3656C4.63828 18.1194 4.5 17.7856 4.5 17.4375V8.8125C4.5 9.1606 4.63828 9.49444 4.88442 9.74058C5.13056 9.98672 5.4644 10.125 5.8125 10.125H18.1875C18.5356 10.125 18.8694 10.2633 19.1156 10.5094C19.3617 10.7556 19.5 11.0894 19.5 11.4375V17.4375C19.5 17.7856 19.3617 18.1194 19.1156 18.3656C18.8694 18.6117 18.5356 18.75 18.1875 18.75Z" fill="#BC6155"/>
<path d="M6.375 17.625H6C5.90054 17.625 5.80516 17.5855 5.73484 17.5152C5.66451 17.4448 5.625 17.3495 5.625 17.25V16.875C5.625 16.7755 5.66451 16.6802 5.73484 16.6098C5.80516 16.5395 5.90054 16.5 6 16.5C6.09946 16.5 6.19484 16.5395 6.26517 16.6098C6.33549 16.6802 6.375 16.7755 6.375 16.875C6.47446 16.875 6.56984 16.9145 6.64017 16.9848C6.71049 17.0552 6.75 17.1505 6.75 17.25C6.75 17.3495 6.71049 17.4448 6.64017 17.5152C6.56984 17.5855 6.47446 17.625 6.375 17.625Z" fill="#A5554A"/>
<path d="M6 15.2186C5.90054 15.2186 5.80516 15.1791 5.73484 15.1088C5.66451 15.0385 5.625 14.9431 5.625 14.8436V14.031C5.625 13.9315 5.66451 13.8362 5.73484 13.7658C5.80516 13.6955 5.90054 13.656 6 13.656C6.09946 13.656 6.19484 13.6955 6.26517 13.7658C6.33549 13.8362 6.375 13.9315 6.375 14.031V14.8436C6.375 14.9431 6.33549 15.0385 6.26517 15.1088C6.19484 15.1791 6.09946 15.2186 6 15.2186Z" fill="#A5554A"/>
<path d="M6 12.375C5.90054 12.375 5.80516 12.3355 5.73484 12.2652C5.66451 12.1948 5.625 12.0995 5.625 12V11.625C5.625 11.5255 5.66451 11.4302 5.73484 11.3598C5.80516 11.2895 5.90054 11.25 6 11.25H6.375C6.47446 11.25 6.56984 11.2895 6.64017 11.3598C6.71049 11.4302 6.75 11.5255 6.75 11.625C6.75 11.7245 6.71049 11.8198 6.64017 11.8902C6.56984 11.9605 6.47446 12 6.375 12C6.375 12.0995 6.33549 12.1948 6.26517 12.2652C6.19484 12.3355 6.09946 12.375 6 12.375Z" fill="#A5554A"/>
<path d="M15.9207 12H15.239C15.1395 12 15.0441 11.9605 14.9738 11.8902C14.9035 11.8198 14.864 11.7245 14.864 11.625C14.864 11.5255 14.9035 11.4302 14.9738 11.3598C15.0441 11.2895 15.1395 11.25 15.239 11.25H15.9207C16.0202 11.25 16.1155 11.2895 16.1859 11.3598C16.2562 11.4302 16.2957 11.5255 16.2957 11.625C16.2957 11.7245 16.2562 11.8198 16.1859 11.8902C16.1155 11.9605 16.0202 12 15.9207 12ZM13.5346 12H12.8525C12.753 12 12.6576 11.9605 12.5873 11.8902C12.517 11.8198 12.4775 11.7245 12.4775 11.625C12.4775 11.5255 12.517 11.4302 12.5873 11.3598C12.6576 11.2895 12.753 11.25 12.8525 11.25H13.5346C13.634 11.25 13.7294 11.2895 13.7997 11.3598C13.8701 11.4302 13.9096 11.5255 13.9096 11.625C13.9096 11.7245 13.8701 11.8198 13.7997 11.8902C13.7294 11.9605 13.634 12 13.5346 12ZM11.1481 12H10.466C10.3665 12 10.2711 11.9605 10.2008 11.8902C10.1305 11.8198 10.091 11.7245 10.091 11.625C10.091 11.5255 10.1305 11.4302 10.2008 11.3598C10.2711 11.2895 10.3665 11.25 10.466 11.25H11.1481C11.2475 11.25 11.3429 11.2895 11.4132 11.3598C11.4836 11.4302 11.5231 11.5255 11.5231 11.625C11.5231 11.7245 11.4836 11.8198 11.4132 11.8902C11.3429 11.9605 11.2475 12 11.1481 12ZM8.76158 12H8.07983C7.98038 12 7.885 11.9605 7.81467 11.8902C7.74434 11.8198 7.70483 11.7245 7.70483 11.625C7.70483 11.5255 7.74434 11.4302 7.81467 11.3598C7.885 11.2895 7.98038 11.25 8.07983 11.25H8.76158C8.86104 11.25 8.95642 11.2895 9.02675 11.3598C9.09707 11.4302 9.13658 11.5255 9.13658 11.625C9.13658 11.7245 9.09707 11.8198 9.02675 11.8902C8.95642 11.9605 8.86104 12 8.76158 12Z" fill="#A5554A"/>
<path d="M18 12.375C17.9005 12.375 17.8052 12.3355 17.7348 12.2652C17.6645 12.1948 17.625 12.0995 17.625 12C17.5255 12 17.4302 11.9605 17.3598 11.8902C17.2895 11.8198 17.25 11.7245 17.25 11.625C17.25 11.5255 17.2895 11.4302 17.3598 11.3598C17.4302 11.2895 17.5255 11.25 17.625 11.25H18C18.0995 11.25 18.1948 11.2895 18.2652 11.3598C18.3355 11.4302 18.375 11.5255 18.375 11.625V12C18.375 12.0995 18.3355 12.1948 18.2652 12.2652C18.1948 12.3355 18.0995 12.375 18 12.375Z" fill="#A5554A"/>
<path d="M18 15.219C17.9005 15.219 17.8052 15.1795 17.7348 15.1092C17.6645 15.0388 17.625 14.9435 17.625 14.844V14.0314C17.625 13.9319 17.6645 13.8365 17.7348 13.7662C17.8052 13.6959 17.9005 13.6564 18 13.6564C18.0995 13.6564 18.1948 13.6959 18.2652 13.7662C18.3355 13.8365 18.375 13.9319 18.375 14.0314V14.844C18.375 14.9435 18.3355 15.0388 18.2652 15.1092C18.1948 15.1795 18.0995 15.219 18 15.219Z" fill="#A5554A"/>
<path d="M18 17.625H17.625C17.5255 17.625 17.4302 17.5855 17.3598 17.5152C17.2895 17.4448 17.25 17.3495 17.25 17.25C17.25 17.1505 17.2895 17.0552 17.3598 16.9848C17.4302 16.9145 17.5255 16.875 17.625 16.875C17.625 16.7755 17.6645 16.6802 17.7348 16.6098C17.8052 16.5395 17.9005 16.5 18 16.5C18.0995 16.5 18.1948 16.5395 18.2652 16.6098C18.3355 16.6802 18.375 16.7755 18.375 16.875V17.25C18.375 17.3495 18.3355 17.4448 18.2652 17.5152C18.1948 17.5855 18.0995 17.625 18 17.625Z" fill="#A5554A"/>
<path d="M15.9202 17.625H15.2385C15.139 17.625 15.0436 17.5855 14.9733 17.5152C14.903 17.4448 14.8635 17.3495 14.8635 17.25C14.8635 17.1505 14.903 17.0552 14.9733 16.9848C15.0436 16.9145 15.139 16.875 15.2385 16.875H15.9202C16.0197 16.875 16.1151 16.9145 16.1854 16.9848C16.2557 17.0552 16.2952 17.1505 16.2952 17.25C16.2952 17.3495 16.2557 17.4448 16.1854 17.5152C16.1151 17.5855 16.0197 17.625 15.9202 17.625ZM13.5341 17.625H12.852C12.7525 17.625 12.6571 17.5855 12.5868 17.5152C12.5165 17.4448 12.477 17.3495 12.477 17.25C12.477 17.1505 12.5165 17.0552 12.5868 16.9848C12.6571 16.9145 12.7525 16.875 12.852 16.875H13.5341C13.6336 16.875 13.7289 16.9145 13.7993 16.9848C13.8696 17.0552 13.9091 17.1505 13.9091 17.25C13.9091 17.3495 13.8696 17.4448 13.7993 17.5152C13.7289 17.5855 13.6336 17.625 13.5341 17.625ZM11.1476 17.625H10.4655C10.366 17.625 10.2706 17.5855 10.2003 17.5152C10.13 17.4448 10.0905 17.3495 10.0905 17.25C10.0905 17.1505 10.13 17.0552 10.2003 16.9848C10.2706 16.9145 10.366 16.875 10.4655 16.875H11.1476C11.2471 16.875 11.3424 16.9145 11.4128 16.9848C11.4831 17.0552 11.5226 17.1505 11.5226 17.25C11.5226 17.3495 11.4831 17.4448 11.4128 17.5152C11.3424 17.5855 11.2471 17.625 11.1476 17.625ZM8.7611 17.625H8.07935C7.97989 17.625 7.88451 17.5855 7.81418 17.5152C7.74385 17.4448 7.70435 17.3495 7.70435 17.25C7.70435 17.1505 7.74385 17.0552 7.81418 16.9848C7.88451 16.9145 7.97989 16.875 8.07935 16.875H8.7611C8.86055 16.875 8.95593 16.9145 9.02626 16.9848C9.09659 17.0552 9.1361 17.1505 9.1361 17.25C9.1361 17.3495 9.09659 17.4448 9.02626 17.5152C8.95593 17.5855 8.86055 17.625 8.7611 17.625Z" fill="#A5554A"/>
</g>
<defs>
<clipPath id="clip0_335_6224">
<rect width="24" height="24" fill="white"/>
</clipPath>
</defs>
</svg>
