<svg width="24" height="24" viewBox="0 0 24 24" fill="none" xmlns="http://www.w3.org/2000/svg">
<g clip-path="url(#clip0_335_6509)">
<path d="M20.5962 9.4976V14.8919L24 13.5982L19.2835 1.75244L0 9.4976" fill="#99584D"/>
<path d="M21.5769 14.5192V8.51685H2.44206L0.980713 9.10384V9.49762H20.5962V14.8919L21.5769 14.5192Z" fill="#C39188"/>
<path d="M0 9.49756H20.5962V22.2476H0V9.49756Z" fill="#AA6256"/>
<path d="M1.96143 13.7688C3.07105 13.4368 3.93915 12.5687 4.27115 11.4591H16.3248C16.6568 12.5688 17.5249 13.4369 18.6346 13.7688V17.9763C17.5249 18.3083 16.6568 19.1764 16.3248 20.2861H4.41336H4.27066C3.93879 19.1766 3.07086 18.3085 1.96143 17.9763V13.7688Z" fill="#F9A83D"/>
<path d="M10.2981 18.3245C11.6523 18.3245 12.7501 17.2268 12.7501 15.8726C12.7501 14.5184 11.6523 13.4207 10.2981 13.4207C8.94396 13.4207 7.84619 14.5184 7.84619 15.8726C7.84619 17.2268 8.94396 18.3245 10.2981 18.3245Z" fill="#AA6256"/>
<path d="M20.2564 9.49758L19.0937 6.50623L19.0408 6.37431C17.8873 6.47662 16.7597 5.99175 16.0406 5.08411L15.9092 5.13707L5.39429 9.49758H20.2564Z" fill="#F9A83D"/>
<path d="M7.75942 8.51685L5.39429 9.49762H20.2564L19.8754 8.51685H7.75942Z" fill="#DFC3BF"/>
<path d="M4.90396 16.363C5.17479 16.363 5.39435 16.1434 5.39435 15.8726C5.39435 15.6018 5.17479 15.3822 4.90396 15.3822C4.63313 15.3822 4.41357 15.6018 4.41357 15.8726C4.41357 16.1434 4.63313 16.363 4.90396 16.363Z" fill="#AA6256"/>
<path d="M15.6925 16.363C15.9634 16.363 16.1829 16.1434 16.1829 15.8726C16.1829 15.6018 15.9634 15.3822 15.6925 15.3822C15.4217 15.3822 15.2021 15.6018 15.2021 15.8726C15.2021 16.1434 15.4217 16.363 15.6925 16.363Z" fill="#AA6256"/>
</g>
<defs>
<clipPath id="clip0_335_6509">
<rect width="24" height="24" fill="white"/>
</clipPath>
</defs>
</svg>
