<svg width="24" height="24" viewBox="0 0 24 24" fill="none" xmlns="http://www.w3.org/2000/svg">
<path d="M13.6168 3.21982L13.6178 3.22064L20.5464 8.75954C20.5466 8.75971 20.5469 8.75987 20.5471 8.76004C20.8461 9.00104 21.1184 9.40118 21.2966 9.86832C21.4748 10.3353 21.5388 10.8168 21.4767 11.1987C21.4766 11.199 21.4766 11.1993 21.4766 11.1995L20.1471 19.1562C20.1471 19.1565 20.147 19.1568 20.1469 19.1571C19.9472 20.3272 18.7851 21.3101 17.6 21.3101H6.40002C5.20435 21.3101 4.05277 20.3367 3.85313 19.1574C3.85309 19.1572 3.85306 19.157 3.85303 19.1568L2.52318 11.1977L2.52319 11.1977L2.52266 11.1946C2.45669 10.8143 2.51811 10.3344 2.69593 9.86832C2.87371 9.40232 3.14789 9.00255 3.45115 8.76151L3.45257 8.76036L10.3826 3.21036L10.3828 3.21017C11.2591 2.50752 12.7287 2.50606 13.6168 3.21982ZM9.00002 13.0001C9.00002 14.6562 10.3439 16.0001 12 16.0001C13.6562 16.0001 15 14.6562 15 13.0001C15 11.344 13.6562 10.0001 12 10.0001C10.3439 10.0001 9.00002 11.344 9.00002 13.0001Z" fill="#D68572" stroke="#D68572"/>
</svg>
