<svg width="73" height="73" viewBox="0 0 73 73" fill="none" xmlns="http://www.w3.org/2000/svg">
<path d="M68.0311 24.5222C67.5857 22.7803 66.6857 21.1879 65.423 19.9079C64.4982 18.9852 63.3998 18.2548 62.1912 17.7589C60.9825 17.2631 59.6876 17.0116 58.3813 17.019C57.6168 17.0171 56.8551 17.1115 56.1142 17.2998C56.2965 16.5514 56.3841 15.783 56.3751 15.0128C56.3902 13.6939 56.1366 12.3858 55.6295 11.1682C55.1225 9.95065 54.3727 8.84913 53.4259 7.93086C52.2047 6.63763 50.6265 5.73678 48.8919 5.34286C47.9151 3.8291 46.5717 2.58666 44.9864 1.73088C43.4011 0.875097 41.6253 0.433718 39.8239 0.447716H34.066C32.2696 0.431146 30.4985 0.87174 28.9192 1.72807C27.3399 2.58439 26.0043 3.82831 25.0381 5.34286C23.3106 5.74682 21.7321 6.62993 20.484 7.89074C19.5372 8.809 18.7875 9.91052 18.2804 11.1281C17.7734 12.3457 17.5197 13.6538 17.5349 14.9726C17.5258 15.7429 17.6135 16.5113 17.7957 17.2597C17.0546 17.0724 16.2931 16.978 15.5287 16.9789C12.8722 16.9634 10.3181 18.0024 8.42674 19.8678C7.16519 21.1551 6.2835 22.7658 5.87885 24.5222C4.3594 25.4928 3.10895 26.8305 2.24289 28.4118C1.37683 29.9932 0.92307 31.7672 0.923518 33.5702V39.328C0.909926 41.1334 1.35805 42.9124 2.22532 44.496C3.09259 46.0795 4.35024 47.4151 5.87885 48.376C6.27535 50.1238 7.15874 51.7236 8.42674 52.9902C9.62121 54.2103 11.1163 55.0939 12.7612 55.5518C14.4061 56.0096 16.1426 56.0257 17.7957 55.5983C17.6135 56.3468 17.5258 57.1151 17.5349 57.8854C17.5343 60.1061 18.2707 62.2643 19.6285 64.0216C20.9864 65.7788 22.889 67.0358 25.0381 67.5954C26.0272 69.0822 27.3697 70.3003 28.9453 71.1406C30.5209 71.9809 32.2804 72.4172 34.066 72.4103H39.8239C41.6152 72.4333 43.3834 72.0041 44.965 71.1625C46.5465 70.3209 47.8902 69.0941 48.8718 67.5954C50.5919 67.1394 52.1622 66.2401 53.4259 64.9874C54.3668 64.0604 55.1124 62.9545 55.619 61.7347C56.1255 60.515 56.3826 59.2061 56.3751 57.8854C56.3874 57.115 56.2997 56.3462 56.1142 55.5983C56.8542 55.7915 57.6165 55.886 58.3813 55.8792C59.6891 55.8967 60.9869 55.6499 62.197 55.1534C63.4071 54.657 64.5043 53.9212 65.423 52.9902C66.7221 51.7381 67.6283 50.1347 68.0311 48.376C69.5539 47.4008 70.805 46.056 71.668 44.4669C72.5309 42.8778 72.9776 41.0961 72.9664 39.2879V33.5301C72.9641 31.7354 72.511 29.97 71.6486 28.3961C70.7863 26.8222 69.5424 25.4901 68.0311 24.5222ZM49.2129 16.7582C50.5164 14.5397 50.9926 11.9314 50.5571 9.39539C50.8179 9.59601 51.0787 9.85682 51.3595 10.0574C52.6375 11.3918 53.3555 13.1652 53.3657 15.0128C53.337 16.8211 52.6195 18.5503 51.3595 19.8477C51.112 20.0688 50.9402 20.362 50.8682 20.6859C50.7962 21.0099 50.8277 21.3482 50.9583 21.6533C51.0935 21.9369 51.3175 22.1686 51.5962 22.3134C51.875 22.4582 52.1933 22.5082 52.5031 22.4558C52.676 22.4545 52.8469 22.4183 53.0054 22.3493C53.164 22.2804 53.307 22.1801 53.4259 22.0546C54.7343 20.7523 56.5051 20.0212 58.3512 20.0212C60.1972 20.0212 61.968 20.7523 63.2764 22.0546C63.5118 22.2884 63.7329 22.5363 63.9384 22.7969C61.4119 22.382 58.8192 22.8271 56.5757 24.0608L41.3887 32.8479C41.1445 32.454 40.8239 32.1129 40.4458 31.8448L49.2129 16.7582ZM57.2377 29.2769C58.8183 29.7081 60.2155 30.6423 61.2182 31.9381C62.2208 33.2339 62.7742 34.8209 62.7949 36.4591C62.7949 37.5501 62.5511 38.6274 62.0813 39.6121C61.6115 40.5968 60.9277 41.4641 60.0797 42.1506C59.2317 42.8371 58.241 43.3254 57.18 43.5798C56.1191 43.8343 55.0147 43.8484 53.9475 43.6213C52.2579 42.9582 50.6601 42.0817 49.1928 41.0132C46.7854 39.669 44.4381 38.2647 42.0307 37.0008V36.0579L47.6681 32.8479C50.6172 30.9822 53.4861 28.3139 57.1775 29.2368L57.2377 29.2769ZM40.2853 38.0641C40.2747 38.4969 40.094 38.9081 39.7823 39.2085C39.4706 39.509 39.053 39.6744 38.6201 39.669H35.4102C34.9773 39.6744 34.5597 39.509 34.248 39.2085C33.9363 38.9081 33.7556 38.4969 33.745 38.0641V34.794C33.7423 34.5745 33.7836 34.3568 33.8663 34.1536C33.949 33.9503 34.0716 33.7657 34.2268 33.6105C34.3819 33.4554 34.5666 33.3328 34.7698 33.2501C34.973 33.1674 35.1908 33.1261 35.4102 33.1288H38.5599C38.7794 33.1261 38.9971 33.1674 39.2003 33.2501C39.4036 33.3328 39.5882 33.4554 39.7434 33.6105C39.8985 33.7657 40.0211 33.9503 40.1038 34.1536C40.1866 34.3568 40.2278 34.5745 40.2251 34.794L40.2853 38.0641ZM41.3084 48.0951L43.1742 51.3652C43.9663 52.4549 44.3881 53.7698 44.3779 55.1168C44.3083 56.2694 43.9864 57.3925 43.435 58.407C42.8492 59.4015 42.0441 60.2492 41.0811 60.8854C40.118 61.5217 39.0224 61.9297 37.8778 62.0784C37.5916 62.1179 37.3014 62.1179 37.0152 62.0784C35.8857 62.0769 34.7716 61.8156 33.7593 61.3146C32.7469 60.8137 31.8634 60.0865 31.1771 59.1894C30.4346 58.2886 29.9403 57.2093 29.7433 56.0586C29.5462 54.9079 29.6532 53.7257 30.0536 52.6291C30.6555 51.4856 31.3175 50.4223 32.0598 49.2788C33.5244 46.6707 35.0691 44.0626 36.6139 41.4546C36.6139 41.3141 36.6139 41.2539 36.7343 41.1135H37.4164C38.5599 43.5009 39.9041 45.788 41.2483 48.1352L41.3084 48.0951ZM37.8176 30.7414C37.7662 30.8783 37.6755 30.997 37.5568 31.0825H36.4735C35.4102 29.2769 34.3268 27.4713 33.3237 25.6457C31.5984 22.7166 28.9703 19.8878 29.853 16.2767C30.1597 14.909 30.8525 13.6581 31.8491 12.6725C32.8457 11.6869 34.1042 11.008 35.4752 10.7165C36.8462 10.425 38.2721 10.533 39.5834 11.0279C40.8948 11.5227 42.0366 12.3836 42.8733 13.5081C43.5982 14.3663 44.0957 15.393 44.3201 16.4938C44.5445 17.5946 44.4885 18.7341 44.1573 19.8076C43.5662 20.9691 42.8958 22.0885 42.151 23.158C40.7066 25.6858 39.222 28.2337 37.7575 30.7815L37.8176 30.7414ZM26.9841 7.81049V7.60987C26.9841 7.60987 26.9841 7.40925 27.1246 7.26882C27.265 7.12838 27.586 6.60677 27.8468 6.26571C28.5867 5.34537 29.5249 4.60397 30.5914 4.0968C31.6578 3.58963 32.825 3.32979 34.0059 3.33665H39.7637C40.958 3.3176 42.141 3.57156 43.2223 4.07918C44.3036 4.5868 45.2546 5.33465 46.003 6.26571C46.2638 6.60677 46.4644 6.94782 46.7252 7.34906C46.7252 7.34906 46.7252 7.54969 46.9258 7.75031L47.0662 8.09136C47.5134 9.10185 47.7392 10.1963 47.7283 11.3013C47.7866 12.6046 47.4957 13.8997 46.8857 15.0529C46.5284 13.8629 45.9573 12.748 45.2005 11.7627C44.3447 10.584 43.2247 9.62212 41.9304 8.95403L41.4489 8.69322C40.0854 8.05822 38.5995 7.72919 37.0954 7.72919C35.5913 7.72919 34.1054 8.05822 32.7419 8.69322L31.6787 9.21484C29.5152 10.5712 27.9182 12.6673 27.1848 15.1131C26.5614 14.0035 26.2174 12.7588 26.1824 11.4866C26.1475 10.2143 26.4226 8.95267 26.9841 7.81049ZM10.5734 22.0144C11.8984 20.7222 13.6778 20.0017 15.5287 20.0082C16.4164 19.9991 17.2965 20.1725 18.1144 20.5176C18.9323 20.8627 19.6706 21.3722 20.2834 22.0144C20.4558 22.1878 20.6651 22.32 20.8956 22.4012C21.1262 22.4824 21.3721 22.5106 21.6151 22.4836C21.858 22.4566 22.0917 22.3751 22.2989 22.2453C22.506 22.1154 22.6811 21.9405 22.8112 21.7336C22.8599 21.6369 22.9002 21.5362 22.9316 21.4326C23.3328 20.269 22.0689 19.4264 21.5473 18.6039C21.0756 17.8432 20.7554 16.9985 20.6044 16.1162C20.5728 15.7357 20.5728 15.3532 20.6044 14.9726C20.6147 13.1251 21.3327 11.3517 22.6106 10.0173C22.8915 9.8167 23.1523 9.55589 23.4131 9.35527C22.9524 11.8841 23.4076 14.4944 24.6971 16.718L33.4642 31.8649C33.0669 32.1103 32.7416 32.4564 32.5213 32.868L17.1938 24.0808C15.5608 23.1548 13.7145 22.6708 11.8373 22.6765C11.1752 22.6765 10.5734 22.6765 9.83108 22.8169C10.0919 22.516 10.3728 22.2752 10.5734 22.0144ZM31.9395 35.9375V36.8202L26.1616 40.1505C24.035 41.3743 21.2865 43.7015 18.6784 43.7818C17.702 43.7924 16.733 43.6102 15.827 43.2456C14.9211 42.8811 14.096 42.3414 13.399 41.6574C12.7019 40.9734 12.1467 40.1587 11.7651 39.2598C11.3836 38.3609 11.1831 37.3955 11.1752 36.419C11.1635 35.2836 11.4167 34.1611 11.9147 33.1407C12.4128 32.1203 13.1418 31.2301 14.0441 30.5408C14.92 29.8694 15.9339 29.4005 17.0128 29.1681C18.0917 28.9357 19.2087 28.9454 20.2834 29.1966C20.805 29.3973 21.4069 29.8788 21.9486 30.1396C24.356 31.6242 26.8437 33.0285 29.3113 34.4328C30.1941 34.9344 31.0567 35.4761 31.9395 35.9375ZM8.2863 46.3898L7.82487 46.1892C7.68444 46.0488 7.48382 45.9886 7.34339 45.8482C7.20295 45.7077 7.02239 45.5873 6.82177 45.4469C5.89996 44.707 5.1563 43.7693 4.64582 42.7032C4.13534 41.6371 3.87109 40.4699 3.87264 39.2879V33.5301C3.85508 32.3515 4.10609 31.1844 4.60663 30.1173C5.10718 29.0501 5.84412 28.111 6.76158 27.371C6.94194 27.1924 7.14418 27.0374 7.36345 26.9096L7.82487 26.6287C7.82487 26.6287 7.9653 26.6287 8.02549 26.4883L8.50699 26.2876C9.61902 25.7868 10.8323 25.5514 12.051 25.6002C13.2696 25.6489 14.4602 25.9804 15.5287 26.5685C14.3244 26.9266 13.1909 27.4899 12.1783 28.2337C11.3162 28.9102 10.5707 29.7235 9.97151 30.6411L9.16902 31.9853C8.50901 33.3702 8.16632 34.8849 8.16592 36.419C8.17304 36.8438 8.22005 37.2669 8.30635 37.6829C8.41808 38.7283 8.70995 39.7464 9.16902 40.6922L9.36966 41.0934L9.71071 41.6953C11 43.8983 13.0806 45.5269 15.5287 46.2494C14.4171 46.839 13.1823 47.1589 11.9243 47.1833C10.6662 47.2077 9.41997 46.9359 8.2863 46.3898ZM24.6369 56.0999C23.359 58.3277 22.9045 60.9338 23.3529 63.4626C23.0921 63.262 22.8313 63.0012 22.5504 62.8006C21.9024 62.1502 21.391 61.3768 21.0464 60.5257C20.7019 59.6747 20.5311 58.7633 20.5442 57.8453C20.5217 56.9349 20.6884 56.0298 21.0337 55.1872C21.3791 54.3446 21.8955 53.5828 22.5504 52.9501C22.7077 52.8084 22.8269 52.6294 22.897 52.4296C22.9671 52.2298 22.9859 52.0155 22.9517 51.8066C22.9396 51.4062 22.7745 51.0256 22.4902 50.7433C22.3585 50.6126 22.2018 50.5097 22.0294 50.4408C21.8571 50.3718 21.6727 50.3383 21.4871 50.3421C21.0806 50.3531 20.6934 50.518 20.4038 50.8035C19.1083 52.091 17.3552 52.8124 15.5287 52.8097C13.6778 52.8162 11.8984 52.0958 10.5734 50.8035C10.3265 50.5319 10.0986 50.2436 9.89126 49.9408C10.5128 50.0629 11.1438 50.13 11.7771 50.1414C13.6924 50.1489 15.5706 49.6132 17.1938 48.5967L32.6617 39.6891C32.9075 40.0652 33.2285 40.3863 33.6046 40.632L24.6369 56.0999ZM46.8857 65.0877C46.82 65.2321 46.7464 65.3728 46.665 65.509C46.4544 65.8766 46.2128 66.2256 45.9428 66.5522C45.2018 67.4778 44.261 68.2238 43.191 68.7345C42.121 69.2452 40.9493 69.5073 39.7637 69.5013H34.066C32.8919 69.5164 31.7292 69.2684 30.6634 68.7754C29.5976 68.2824 28.6558 67.5571 27.907 66.6525C27.0213 65.5368 26.4485 64.2054 26.2475 62.7951C26.0466 61.3848 26.2246 59.9464 26.7635 58.6277C26.7635 58.3869 26.9841 58.1462 27.1045 57.9054C27.4775 59.0541 28.0627 60.1225 28.8298 61.0552C29.6857 62.2339 30.8056 63.1958 32.1 63.8639L32.5815 64.1247C34.3515 64.953 36.321 65.2593 38.259 65.0074C39.3582 64.8908 40.4263 64.5711 41.4087 64.0645L41.6896 63.9241C42.9222 63.2951 44.0167 62.4263 44.9089 61.3687C45.8012 60.311 46.4733 59.0859 46.8857 57.765C46.8857 57.765 47.0261 58.0459 47.0462 58.086L47.2267 58.4873C47.3271 58.728 47.4073 58.9888 47.4876 59.2496C47.6476 59.7717 47.7485 60.31 47.7885 60.8546C47.8836 61.9592 47.754 63.0716 47.4073 64.1247C47.2067 64.4457 47.0863 64.7667 46.8857 65.0877ZM63.2162 50.8035C62.5736 51.4452 61.8101 51.953 60.9698 52.2974C60.1295 52.6417 59.2292 52.8159 58.3211 52.8097C57.2062 52.8103 56.1067 52.5492 55.1111 52.0473C54.6103 51.787 54.1451 51.4634 53.7269 51.0844C53.5584 50.8799 53.3511 50.7107 53.117 50.5868C52.8828 50.4628 52.6265 50.3865 52.3626 50.3621C52.119 50.3525 51.8766 50.4023 51.6564 50.5071C51.4362 50.612 51.2449 50.7687 51.0987 50.964C50.1959 52.2078 51.8811 53.4918 52.4228 54.4949C52.8592 55.2526 53.1325 56.0931 53.2253 56.9625C53.265 57.2554 53.265 57.5524 53.2253 57.8453C53.215 59.6929 52.4971 61.4662 51.2191 62.8006C50.9382 63.0012 50.6774 63.262 50.4166 63.4626C50.8522 60.9267 50.376 58.3184 49.0724 56.0999C42.773 45.2463 40.827 41.7756 40.1649 40.6922C40.5199 40.4526 40.8377 40.1619 41.1078 39.8295L56.4954 48.6568C58.14 49.6345 60.019 50.1476 61.9322 50.1414C62.6057 50.1359 63.2772 50.0688 63.9384 49.9408C63.7549 50.255 63.5324 50.5449 63.2764 50.8035H63.2162ZM69.9169 39.2879C69.9159 40.4634 69.6566 41.6244 69.1574 42.6887C68.6582 43.7529 67.9313 44.6946 67.028 45.4469C66.6885 45.715 66.3334 45.9629 65.9647 46.1892L65.2224 46.5303C64.1047 47.0224 62.8894 47.2529 61.669 47.2042C60.4487 47.1555 59.2556 46.829 58.1806 46.2494C59.3882 45.8995 60.523 45.3355 61.531 44.5842C62.5532 43.7888 63.4174 42.8089 64.0789 41.6953L64.6205 40.8326C65.2318 39.4409 65.5526 37.939 65.5635 36.419C65.5631 35.2804 65.3802 34.1493 65.0218 33.0686C64.8814 32.7276 64.761 32.3865 64.5604 31.9853L64.0187 30.9822C62.6722 28.8517 60.5975 27.2831 58.1806 26.5685C59.3101 25.9557 60.5702 25.6231 61.8549 25.5987C63.1397 25.5742 64.4115 25.8587 65.5635 26.4281H65.6838C65.6838 26.4281 65.8845 26.4281 65.9647 26.5685C66.328 26.7743 66.6649 27.0235 66.9678 27.3108L67.1684 27.4512C68.0384 28.1928 68.7353 29.1159 69.2102 30.1557C69.685 31.1955 69.9263 32.3268 69.9169 33.4699V39.2879Z" fill="#D88571"/>
</svg>
