<svg width="99" height="87" viewBox="0 0 99 87" fill="none" xmlns="http://www.w3.org/2000/svg">
<path fill-rule="evenodd" clip-rule="evenodd" d="M32.8711 80.4385H34.0287C34.0933 80.4422 34.1584 80.4422 34.2235 80.4385H37.1156C37.7689 80.447 38.422 80.4113 39.0704 80.3314C39.6008 80.2741 40.1223 80.1527 40.6235 79.9699C41.072 79.7882 41.488 79.535 41.8553 79.2201C42.2547 78.8682 42.5978 78.4573 42.8729 78.0017C43.1647 78.8319 43.7704 79.5145 44.5599 79.9029C45.0145 79.9784 45.4701 80.0459 45.9268 80.1055L45.9384 80.1172C46.0837 80.1325 46.2291 80.1473 46.3745 80.1613C47.9934 80.3538 49.6231 80.4464 51.2545 80.4385C51.4473 80.4507 51.6396 80.4323 51.8248 80.3849H52.1242C53.289 80.3849 54.2664 80.3448 55.043 80.2644C55.7056 80.2041 56.358 80.0601 56.9844 79.836C57.4732 79.6524 57.9263 79.3851 58.3233 79.046C58.7005 78.6952 59.0332 78.2995 59.3141 77.8678C59.5235 78.378 59.8436 78.8353 60.2514 79.2067C60.6539 79.5313 61.1059 79.7889 61.5903 79.9699C62.0925 80.1491 62.6136 80.2704 63.1434 80.3314C63.6621 80.407 64.1858 80.4428 64.71 80.4385C65.9157 80.4622 67.1189 80.318 68.2848 80.01C69.3416 79.639 70.2238 78.8903 70.7618 77.908C70.9712 78.4182 71.2913 78.8755 71.6991 79.2469C72.1028 79.5696 72.5546 79.8271 73.038 80.01C73.529 80.1838 74.0357 80.3093 74.5509 80.3849C75.0706 80.4495 75.5938 80.4808 76.1175 80.4787C77.1048 80.4984 78.0854 80.3114 78.9961 79.9297C79.8087 79.5425 80.4922 78.9288 80.9643 78.1624C81.1201 78.5768 81.3633 78.9529 81.6776 79.2648C81.9918 79.5767 82.3696 79.8172 82.7853 79.9699C83.5805 80.2594 84.4172 80.4169 85.2624 80.4364C85.3067 80.4388 85.3512 80.4395 85.3958 80.4385H85.4173L85.4631 80.4385C85.5938 80.4532 85.7249 80.453 85.8542 80.4385H98.4636L98.4502 77.7473H85.3824C85.1781 77.7344 84.9742 77.7558 84.7788 77.8097C84.3422 77.7567 83.9143 77.6414 83.5083 77.4661C83.0116 77.2338 82.5896 76.8675 82.2899 76.4084C81.9678 75.9105 81.7577 75.3486 81.674 74.7615C81.5663 74.0301 81.5126 73.2917 81.5133 72.5523V67.9866H79.0765V74.1992C79.1047 74.868 79.0047 75.5361 78.7819 76.1674C78.6222 76.6049 78.3383 76.9865 77.9652 77.2653C77.5968 77.5155 77.1749 77.676 76.7334 77.7339C76.2278 77.8059 75.7177 77.8417 75.207 77.841C74.5184 77.8618 73.8334 77.734 73.1986 77.4661C72.7032 77.2373 72.2847 76.8699 71.9936 76.4084C71.683 75.9048 71.4737 75.3454 71.3777 74.7615C71.2578 74.0313 71.1995 73.2923 71.2037 72.5523V69.7138H68.7802V74.159C68.7987 74.8243 68.7129 75.4884 68.5258 76.1272C68.3845 76.5566 68.1245 76.9372 67.7761 77.2251C67.4031 77.4857 66.97 77.647 66.5175 77.6937C65.9269 77.7682 65.332 77.804 64.7367 77.8008C63.8775 77.8302 63.02 77.7032 62.2062 77.4259C61.6476 77.2123 61.1604 76.8457 60.8003 76.3682C60.4626 75.8771 60.2469 75.3125 60.171 74.7213C60.0747 74.0025 60.03 73.2776 60.0371 72.5523V69.6736H57.5735V74.159C57.5692 74.8092 57.4653 75.4549 57.2656 76.0736C57.1091 76.5321 56.7963 76.9207 56.3819 77.1716C55.8757 77.4391 55.3195 77.5987 54.7484 77.6402C54.0924 77.7473 53.2489 77.7473 52.2179 77.7473H51.1066C51.0019 77.7473 50.6846 77.7515 50.2552 77.76C48.2441 77.6276 44.663 77.1725 44.252 76.395C43.7044 75.1909 43.4519 73.8735 43.5156 72.5523V67.8393H41.0252V74.4536C41.0631 75.1104 40.9437 75.7668 40.6771 76.3682C40.4748 76.7875 40.1473 77.1337 39.7399 77.359C39.325 77.5771 38.8687 77.7048 38.401 77.7339C37.8922 77.8008 37.3566 77.8008 36.8076 77.8008H34.9724L34.9732 77.7874H32.8711C32.149 77.7999 31.4445 77.5635 30.8761 77.118C30.3208 76.7136 29.8404 76.2151 29.4568 75.6452C29.5821 74.9111 29.6403 74.1672 29.6309 73.4226C29.666 72.3234 29.5074 71.2266 29.1623 70.1824C28.8495 69.2694 28.3731 68.421 27.7564 67.6787C27.1833 66.9929 26.4714 66.4362 25.6677 66.0452C24.8537 65.6524 23.9607 65.4509 23.0568 65.4561C22.3689 65.4662 21.6868 65.5837 21.0351 65.8042C20.2589 66.076 19.5444 66.4993 18.933 67.0494C18.1342 67.7683 17.4481 68.6033 16.8979 69.5264C16.1515 70.7976 15.5412 72.144 15.0769 73.5431C14.8351 74.3014 14.4976 75.0257 14.0727 75.6987C13.7697 76.2047 13.3852 76.657 12.9347 77.0376C12.5947 77.313 12.2032 77.5178 11.7832 77.6402C11.4353 77.743 11.0748 77.7971 10.7121 77.8008H9.54773C9.44149 77.7857 9.33343 77.7811 9.22511 77.7874H0V80.3582H9.22511C9.36952 80.3673 9.51367 80.3581 9.65425 80.3314H10.7522C11.6134 80.3362 12.4705 80.2144 13.2962 79.9699C14.2318 79.6201 15.0141 78.9516 15.5054 78.082C16.7864 79.0267 18.1981 79.78 19.6962 80.318C20.8641 80.696 22.0837 80.8902 23.3112 80.8937C24.4548 80.936 25.5884 80.6676 26.5916 80.1171C27.4806 79.5904 28.2041 78.825 28.6803 77.9079C29.0784 78.631 29.6603 79.236 30.3673 79.6619C31.1091 80.1578 31.9789 80.4276 32.8711 80.4385ZM26.8995 71.4276C27.0893 72.0755 27.184 72.7475 27.1807 73.4226C27.284 74.769 26.8617 76.1031 26.0025 77.1448C25.5985 77.5284 25.1208 77.8259 24.5983 78.0193C24.0758 78.2126 23.5195 78.2977 22.9631 78.2694C21.8632 78.2677 20.7749 78.0446 19.7631 77.6134C18.6279 77.1302 17.5538 76.5145 16.5631 75.7791C16.9422 74.5436 17.4167 73.3394 17.9824 72.1774C18.3813 71.3309 18.8803 70.5353 19.4686 69.8075C19.9006 69.2551 20.4433 68.7991 21.0619 68.4686C21.59 68.205 22.172 68.0675 22.7623 68.0669C23.4488 68.0639 24.1236 68.2442 24.7171 68.5891C25.2396 68.88 25.6956 69.2768 26.056 69.754C26.4334 70.2579 26.7189 70.8245 26.8995 71.4276ZM88.9968 67.9866H91.0989C91.2838 67.9866 91.4337 68.1365 91.4337 68.3213V70.5841C91.4337 70.769 91.2838 70.9188 91.0989 70.9188H88.9968C88.812 70.9188 88.6621 70.769 88.6621 70.5841V68.3213C88.6621 68.1365 88.812 67.9866 88.9968 67.9866ZM41.7737 83.5582H39.6716C39.4868 83.5582 39.3369 83.708 39.3369 83.8929V86.1557C39.3369 86.3405 39.4868 86.4904 39.6716 86.4904H41.7737C41.9586 86.4904 42.1085 86.3405 42.1085 86.1557V83.8929C42.1085 83.708 41.9586 83.5582 41.7737 83.5582ZM43.0066 83.5582H45.1087C45.2936 83.5582 45.4434 83.708 45.4434 83.8929V86.1557C45.4434 86.3405 45.2936 86.4904 45.1087 86.4904H43.0066C42.8217 86.4904 42.6719 86.3405 42.6719 86.1557V83.8929C42.6719 83.708 42.8217 83.5582 43.0066 83.5582Z" fill="#505A67"/>
<path d="M69.7868 16.0672C69.4896 14.9047 68.8889 13.842 68.0462 12.9878C67.429 12.3719 66.696 11.8845 65.8893 11.5536C65.0827 11.2226 64.2185 11.0548 63.3467 11.0597C62.8365 11.0585 62.3281 11.1214 61.8337 11.2472C61.9553 10.7477 62.0138 10.2349 62.0077 9.7208C62.0179 8.84062 61.8486 7.96761 61.5102 7.15501C61.1718 6.34242 60.6714 5.60728 60.0395 4.99444C59.2245 4.13136 58.1712 3.53014 57.0136 3.26725C56.3617 2.25699 55.4652 1.4278 54.4072 0.856664C53.3491 0.285528 52.164 -0.00904129 50.9617 0.000300778H47.119C45.9201 -0.0107577 44.7381 0.283288 43.6841 0.854787C42.6301 1.42629 41.7388 2.25646 41.0939 3.26725C39.941 3.53684 38.8876 4.12622 38.0546 4.96767C37.4227 5.5805 36.9223 6.31564 36.584 7.12823C36.2456 7.94083 36.0763 8.81385 36.0864 9.69403C36.0803 10.2081 36.1388 10.7209 36.2605 11.2204C35.7659 11.0953 35.2576 11.0324 34.7475 11.0329C32.9746 11.0226 31.27 11.716 30.0077 12.961C29.1658 13.8201 28.5774 14.895 28.3073 16.0672C27.2933 16.715 26.4587 17.6078 25.8807 18.6631C25.3027 19.7185 24.9999 20.9025 25.0002 22.1057V25.9484C24.9911 27.1534 25.2902 28.3406 25.869 29.3975C26.4478 30.4543 27.2871 31.3457 28.3073 31.9869C28.5719 33.1534 29.1615 34.2211 30.0077 35.0664C30.8049 35.8807 31.8027 36.4703 32.9005 36.7759C33.9983 37.0815 35.1572 37.0922 36.2605 36.807C36.1388 37.3065 36.0803 37.8193 36.0864 38.3334C36.086 39.8155 36.5774 41.2558 37.4837 42.4286C38.3899 43.6013 39.6597 44.4402 41.0939 44.8137C41.754 45.8059 42.65 46.6189 43.7015 47.1797C44.7531 47.7405 45.9273 48.0317 47.119 48.0271H50.9617C52.1572 48.0424 53.3373 47.756 54.3928 47.1943C55.4483 46.6326 56.3451 45.8139 57.0002 44.8137C58.1481 44.5093 59.1961 43.9092 60.0395 43.0731C60.6674 42.4545 61.1651 41.7164 61.5031 40.9023C61.8412 40.0883 62.0128 39.2148 62.0077 38.3334C62.016 37.8192 61.9575 37.3061 61.8337 36.807C62.3275 36.936 62.8363 36.999 63.3467 36.9944C64.2195 37.0062 65.0856 36.8414 65.8932 36.5101C66.7008 36.1788 67.4331 35.6877 68.0462 35.0664C68.9132 34.2307 69.518 33.1607 69.7868 31.9869C70.8031 31.3361 71.6381 30.4386 72.214 29.378C72.7899 28.3175 73.088 27.1284 73.0805 25.9216V22.079C73.079 20.8812 72.7766 19.7031 72.2011 18.6526C71.6256 17.6022 70.7954 16.7132 69.7868 16.0672ZM57.2278 10.8857C58.0978 9.40507 58.4156 7.66433 58.1249 5.97185C58.299 6.10574 58.473 6.2798 58.6605 6.41369C59.5133 7.30422 59.9925 8.48775 59.9994 9.7208C59.9802 10.9276 59.5013 12.0817 58.6605 12.9476C58.4953 13.0951 58.3806 13.2908 58.3325 13.507C58.2845 13.7232 58.3055 13.949 58.3927 14.1526C58.4829 14.3418 58.6324 14.4965 58.8184 14.5931C59.0045 14.6898 59.2169 14.7231 59.4236 14.6882C59.539 14.6873 59.6531 14.6631 59.7589 14.6171C59.8647 14.5711 59.9602 14.5042 60.0395 14.4204C60.9127 13.5513 62.0946 13.0633 63.3266 13.0633C64.5586 13.0633 65.7404 13.5513 66.6136 14.4204C66.7707 14.5765 66.9183 14.7419 67.0554 14.9158C65.3693 14.6389 63.6389 14.936 62.1416 15.7593L52.0061 21.6237C51.8431 21.3608 51.6291 21.1332 51.3768 20.9543L57.2278 10.8857ZM62.5835 19.2405C63.6383 19.5283 64.5708 20.1517 65.24 21.0165C65.9091 21.8813 66.2785 22.9404 66.2923 24.0338C66.2923 24.7619 66.1295 25.4809 65.816 26.138C65.5025 26.7952 65.0461 27.374 64.4801 27.8322C63.9142 28.2903 63.253 28.6162 62.545 28.786C61.8369 28.9559 61.0998 28.9653 60.3876 28.8137C59.26 28.3712 58.1936 27.7862 57.2144 27.0731C55.6077 26.176 54.0412 25.2388 52.4345 24.3953V23.766L56.1969 21.6237C58.1651 20.3785 60.0797 18.5978 62.5433 19.2137L62.5835 19.2405ZM51.2697 25.1049C51.2626 25.3938 51.142 25.6682 50.934 25.8687C50.726 26.0692 50.4473 26.1796 50.1584 26.176H48.0161C47.7272 26.1796 47.4485 26.0692 47.2405 25.8687C47.0324 25.6682 46.9118 25.3938 46.9048 25.1049V22.9225C46.903 22.776 46.9305 22.6307 46.9857 22.4951C47.0409 22.3594 47.1227 22.2362 47.2263 22.1327C47.3298 22.0291 47.4531 21.9473 47.5887 21.8921C47.7244 21.8369 47.8697 21.8094 48.0161 21.8112H50.1182C50.2646 21.8094 50.4099 21.8369 50.5456 21.8921C50.6812 21.9473 50.8045 22.0291 50.908 22.1327C51.0116 22.2362 51.0933 22.3594 51.1486 22.4951C51.2038 22.6307 51.2313 22.776 51.2295 22.9225L51.2697 25.1049ZM51.9525 31.7995L53.1977 33.9819C53.7263 34.7091 54.0079 35.5866 54.001 36.4857C53.9546 37.2548 53.7398 38.0044 53.3717 38.6815C52.9808 39.3452 52.4435 39.9109 51.8008 40.3355C51.158 40.7602 50.4269 41.0325 49.663 41.1317C49.472 41.1581 49.2782 41.1581 49.0872 41.1317C48.3334 41.1307 47.5899 40.9563 46.9143 40.622C46.2387 40.2876 45.649 39.8024 45.191 39.2037C44.6954 38.6024 44.3656 37.8822 44.2341 37.1142C44.1026 36.3463 44.174 35.5573 44.4412 34.8254C44.8429 34.0622 45.2847 33.3526 45.7801 32.5894C46.7575 30.8488 47.7885 29.1083 48.8194 27.3677C48.8194 27.2739 48.8195 27.2338 48.8998 27.1401H49.355C50.1182 28.7334 51.0153 30.2597 51.9123 31.8262L51.9525 31.7995ZM49.6228 20.2179C49.5885 20.3092 49.5279 20.3884 49.4487 20.4455H48.7257C48.0161 19.2405 47.2931 18.0354 46.6236 16.817C45.4722 14.8622 43.7182 12.9744 44.3073 10.5643C44.512 9.65155 44.9744 8.8167 45.6395 8.15893C46.3046 7.50115 47.1445 7.04808 48.0595 6.85352C48.9745 6.65897 49.9261 6.7311 50.8013 7.06135C51.6765 7.3916 52.4385 7.9661 52.9969 8.71662C53.4807 9.28938 53.8127 9.97459 53.9624 10.7092C54.1122 11.4439 54.0748 12.2044 53.8538 12.9208C53.4593 13.696 53.0119 14.4431 52.5148 15.1568C51.5508 16.8438 50.56 18.5442 49.5826 20.2447L49.6228 20.2179ZM42.3927 4.91411V4.78022C42.3927 4.78022 42.3927 4.64633 42.4864 4.5526C42.5801 4.45888 42.7943 4.11076 42.9684 3.88315C43.4622 3.26893 44.0883 2.77412 44.8001 2.43565C45.5118 2.09717 46.2908 1.92376 47.0789 1.92833H50.9215C51.7186 1.91562 52.5081 2.08511 53.2298 2.42389C53.9514 2.76266 54.5861 3.26177 55.0856 3.88315C55.2596 4.11076 55.3935 4.33838 55.5676 4.60616C55.5676 4.60616 55.5676 4.74005 55.7015 4.87394L55.7952 5.10156C56.0936 5.77594 56.2443 6.50638 56.237 7.24382C56.2759 8.1136 56.0818 8.97799 55.6747 9.74758C55.4362 8.95343 55.0551 8.20935 54.55 7.55177C53.9788 6.76513 53.2314 6.12316 52.3676 5.67729L52.0462 5.50323C51.1363 5.07944 50.1446 4.85985 49.1408 4.85985C48.137 4.85985 47.1453 5.07944 46.2353 5.50323L45.5257 5.85135C44.0819 6.75656 43.0161 8.15545 42.5266 9.78775C42.1105 9.0472 41.881 8.21655 41.8576 7.36747C41.8343 6.51839 42.0179 5.67638 42.3927 4.91411ZM31.4404 14.3936C32.3247 13.5312 33.5123 13.0504 34.7475 13.0547C35.3399 13.0486 35.9273 13.1643 36.4731 13.3946C37.019 13.625 37.5117 13.965 37.9207 14.3936C38.0358 14.5093 38.1754 14.5975 38.3293 14.6517C38.4832 14.7059 38.6473 14.7247 38.8094 14.7067C38.9716 14.6887 39.1276 14.6343 39.2658 14.5477C39.404 14.461 39.5209 14.3443 39.6077 14.2062C39.6402 14.1416 39.6671 14.0745 39.6881 14.0053C39.9559 13.2288 39.1123 12.6664 38.7642 12.1175C38.4494 11.6098 38.2357 11.046 38.1349 10.4572C38.1138 10.2032 38.1138 9.94798 38.1349 9.69403C38.1418 8.46097 38.621 7.27744 39.4738 6.38691C39.6613 6.25302 39.8354 6.07896 40.0094 5.94507C39.7019 7.63279 40.0057 9.37485 40.8663 10.8589L46.7174 20.9677C46.4522 21.1314 46.2351 21.3624 46.0881 21.6371L35.8588 15.7727C34.7689 15.1547 33.5367 14.8317 32.2839 14.8354C31.842 14.8354 31.4404 14.8354 30.945 14.9292C31.119 14.7283 31.3065 14.5677 31.4404 14.3936ZM45.6998 23.6857V24.2748L41.8437 26.4974C40.4245 27.3141 38.5902 28.8673 36.8496 28.9208C36.1979 28.9279 35.5512 28.8063 34.9466 28.563C34.342 28.3197 33.7913 27.9595 33.3261 27.503C32.8609 27.0466 32.4904 26.5028 32.2357 25.9029C31.9811 25.303 31.8473 24.6587 31.842 24.007C31.8342 23.2493 32.0032 22.5001 32.3356 21.8191C32.6679 21.1381 33.1545 20.544 33.7567 20.084C34.3412 19.6359 35.0179 19.323 35.738 19.1679C36.458 19.0127 37.2035 19.0192 37.9207 19.1869C38.2688 19.3208 38.6705 19.6421 39.032 19.8162C40.6387 20.807 42.2989 21.7442 43.9458 22.6815C44.5349 23.0162 45.1107 23.3777 45.6998 23.6857ZM29.914 30.6614L29.6061 30.5275C29.5123 30.4338 29.3784 30.3936 29.2847 30.2999C29.191 30.2062 29.0705 30.1258 28.9366 30.0321C28.3214 29.5383 27.8251 28.9125 27.4844 28.201C27.1437 27.4895 26.9674 26.7105 26.9684 25.9216V22.079C26.9567 21.2924 27.1242 20.5135 27.4583 19.8013C27.7923 19.0891 28.2841 18.4624 28.8964 17.9685C29.0168 17.8493 29.1518 17.7459 29.2981 17.6606L29.6061 17.4731C29.6061 17.4731 29.6998 17.4731 29.74 17.3794L30.0613 17.2455C30.8035 16.9112 31.6132 16.7541 32.4265 16.7867C33.2398 16.8192 34.0344 17.0405 34.7475 17.4329C33.9438 17.6719 33.1873 18.0479 32.5115 18.5442C31.9361 18.9958 31.4386 19.5385 31.0387 20.1509L30.5031 21.048C30.0626 21.9723 29.8339 22.9831 29.8337 24.007C29.8384 24.2905 29.8698 24.5729 29.9274 24.8505C30.002 25.5482 30.1967 26.2277 30.5031 26.8589L30.637 27.1267L30.8646 27.5283C31.7251 28.9986 33.1137 30.0855 34.7475 30.5677C34.0056 30.9611 33.1816 31.1747 32.3419 31.1909C31.5023 31.2072 30.6706 31.0258 29.914 30.6614ZM40.8262 37.1417C39.9733 38.6286 39.67 40.3678 39.9692 42.0555C39.7952 41.9216 39.6211 41.7476 39.4337 41.6137C39.0012 41.1796 38.6599 40.6634 38.4299 40.0955C38.2 39.5275 38.086 38.9193 38.0948 38.3066C38.0797 37.699 38.191 37.095 38.4215 36.5326C38.6519 35.9703 38.9966 35.4619 39.4337 35.0396C39.5387 34.945 39.6182 34.8256 39.665 34.6922C39.7118 34.5589 39.7243 34.4159 39.7015 34.2765C39.6934 34.0092 39.5832 33.7552 39.3935 33.5668C39.3056 33.4796 39.201 33.4109 39.086 33.3649C38.971 33.3189 38.8479 33.2965 38.724 33.299C38.4527 33.3064 38.1943 33.4165 38.001 33.607C37.1364 34.4663 35.9665 34.9477 34.7475 34.9459C33.5123 34.9502 32.3247 34.4694 31.4404 33.607C31.2756 33.4257 31.1235 33.2334 30.9851 33.0313C31.3999 33.1127 31.8211 33.1575 32.2437 33.1652C33.522 33.1701 34.7754 32.8127 35.8588 32.1342L46.1818 26.1894C46.3458 26.4404 46.5601 26.6547 46.8111 26.8187L40.8262 37.1417ZM55.6747 43.1401C55.6309 43.2365 55.5817 43.3303 55.5274 43.4212C55.3868 43.6666 55.2256 43.8995 55.0454 44.1175C54.5508 44.7352 53.923 45.2331 53.2089 45.5739C52.4948 45.9147 51.7128 46.0897 50.9215 46.0857H47.119C46.3354 46.0957 45.5595 45.9302 44.8482 45.6012C44.1369 45.2722 43.5083 44.7881 43.0086 44.1844C42.4175 43.4398 42.0352 42.5512 41.9011 41.61C41.767 40.6688 41.8858 39.7089 42.2454 38.8288C42.2454 38.6681 42.3927 38.5074 42.473 38.3467C42.7219 39.1133 43.1125 39.8264 43.6245 40.4488C44.1956 41.2355 44.9431 41.8774 45.8069 42.3233L46.1282 42.4974C47.3095 43.0502 48.624 43.2546 49.9174 43.0865C50.651 43.0087 51.3638 42.7953 52.0194 42.4572L52.2069 42.3635C53.0295 41.9437 53.7599 41.3639 54.3554 40.6581C54.9509 39.9522 55.3994 39.1345 55.6747 38.253C55.6747 38.253 55.7684 38.4405 55.7818 38.4673L55.9023 38.735C55.9692 38.8957 56.0228 39.0698 56.0764 39.2438C56.1831 39.5922 56.2505 39.9515 56.2772 40.3149C56.3407 41.0521 56.2542 41.7946 56.0228 42.4974C55.8889 42.7116 55.8086 42.9258 55.6747 43.1401ZM66.5734 33.607C66.1446 34.0353 65.635 34.3741 65.0742 34.604C64.5134 34.8338 63.9125 34.95 63.3065 34.9459C62.5624 34.9463 61.8286 34.7721 61.1642 34.4371C60.83 34.2634 60.5195 34.0474 60.2404 33.7944C60.128 33.658 59.9896 33.5451 59.8334 33.4624C59.6771 33.3796 59.506 33.3287 59.3299 33.3124C59.1673 33.306 59.0055 33.3392 58.8586 33.4092C58.7117 33.4792 58.5839 33.5838 58.4864 33.7141C57.8839 34.5442 59.0086 35.4011 59.3701 36.0706C59.6613 36.5763 59.8437 37.1372 59.9056 37.7175C59.9321 37.9129 59.9321 38.1111 59.9056 38.3066C59.8988 39.5396 59.4196 40.7232 58.5667 41.6137C58.3793 41.7476 58.2052 41.9216 58.0312 42.0555C58.3219 40.3631 58.0041 38.6223 57.1341 37.1417C52.9299 29.8982 51.6312 27.5819 51.1893 26.8589C51.4263 26.699 51.6383 26.505 51.8186 26.2831L62.0881 32.1744C63.1856 32.8268 64.4397 33.1693 65.7165 33.1652C66.166 33.1615 66.6142 33.1167 67.0554 33.0313C66.9329 33.241 66.7845 33.4344 66.6136 33.607H66.5734ZM71.0454 25.9216C71.0447 26.7062 70.8717 27.481 70.5385 28.1913C70.2053 28.9016 69.7202 29.53 69.1174 30.0321C68.8908 30.211 68.6538 30.3764 68.4077 30.5275L67.9123 30.7551C67.1664 31.0835 66.3553 31.2374 65.5409 31.2049C64.7265 31.1724 63.9302 30.9545 63.2128 30.5677C64.0186 30.3342 64.776 29.9578 65.4487 29.4564C66.131 28.9255 66.7077 28.2715 67.1492 27.5283L67.5107 26.9526C67.9186 26.0238 68.1327 25.0214 68.1399 24.007C68.1397 23.2471 68.0177 22.4922 67.7784 21.771C67.6847 21.5434 67.6044 21.3158 67.4705 21.048L67.109 20.3785C66.2104 18.9567 64.8257 17.9099 63.2128 17.4329C63.9665 17.024 64.8075 16.802 65.6649 16.7857C66.5224 16.7694 67.3712 16.9592 68.1399 17.3392H68.2203C68.2203 17.3392 68.3542 17.3392 68.4077 17.4329C68.6502 17.5702 68.875 17.7366 69.0772 17.9283L69.2111 18.0221C69.7917 18.5169 70.2568 19.133 70.5737 19.827C70.8906 20.521 71.0516 21.2759 71.0454 22.0388V25.9216Z" fill="#D88571"/>
</svg>
