<svg width="28" height="28" viewBox="0 0 28 28" fill="none" xmlns="http://www.w3.org/2000/svg">
<path d="M23.36 16.3543L22.0686 14.2057C21.7829 13.7371 21.5314 12.8343 21.5314 12.2857V10.1485C21.5314 5.99997 18.16 2.62854 14.0229 2.62854C9.87429 2.63997 6.50286 5.99997 6.50286 10.1485V12.2743C6.50286 12.8228 6.25143 13.7257 5.97715 14.1943L4.68572 16.3428C4.19429 17.1771 4.08 18.1257 4.38858 18.9485C4.69715 19.7828 5.39429 20.4457 6.30858 20.7428C7.54286 21.1543 8.78858 21.4514 10.0571 21.6685C10.1829 21.6914 10.3086 21.7028 10.4343 21.7257C10.5943 21.7485 10.7657 21.7714 10.9371 21.7943C11.2343 21.84 11.5314 21.8743 11.84 21.8971C12.56 21.9657 13.2914 22 14.0229 22C14.7429 22 15.4629 21.9657 16.1714 21.8971C16.4343 21.8743 16.6971 21.8514 16.9486 21.8171C17.1543 21.7943 17.36 21.7714 17.5657 21.7371C17.6914 21.7257 17.8171 21.7028 17.9429 21.68C19.2229 21.4743 20.4914 21.1543 21.7257 20.7428C22.6057 20.4457 23.28 19.7828 23.6 18.9371C23.92 18.08 23.8286 17.1428 23.36 16.3543ZM14.8571 11.7143C14.8571 12.1943 14.4686 12.5828 13.9886 12.5828C13.5086 12.5828 13.12 12.1943 13.12 11.7143V8.1714C13.12 7.6914 13.5086 7.30283 13.9886 7.30283C14.4686 7.30283 14.8571 7.6914 14.8571 8.1714V11.7143Z" fill="#ED3A3A"/>
<path d="M17.2344 23.1543C16.7544 24.48 15.4858 25.4285 14.0001 25.4285C13.0972 25.4285 12.2058 25.0628 11.5772 24.4114C11.2115 24.0685 10.9372 23.6114 10.7772 23.1428C10.9258 23.1657 11.0744 23.1771 11.2344 23.2C11.4972 23.2343 11.7715 23.2685 12.0458 23.2914C12.6972 23.3485 13.3601 23.3828 14.0229 23.3828C14.6744 23.3828 15.3258 23.3485 15.9658 23.2914C16.2058 23.2685 16.4458 23.2571 16.6744 23.2228C16.8572 23.2 17.0401 23.1771 17.2344 23.1543Z" fill="#ED3A3A"/>
</svg>
