<svg width="72" height="77" viewBox="0 0 72 77" fill="none" xmlns="http://www.w3.org/2000/svg">
<g clip-path="url(#clip0_75_4171)">
<path d="M36.2935 76.8256C35.1143 76.8217 33.9401 76.6698 32.7986 76.3735L32.5736 76.3113L32.3649 76.2067C24.8196 72.4236 18.4539 67.4267 13.4449 61.3546C9.29838 56.2987 6.0656 50.5583 3.89189 44.3915C1.29246 37.0082 0.0418831 29.2177 0.199852 21.3919C0.203039 21.2276 0.205737 21.1008 0.205737 21.0134C0.205737 17.2092 2.31736 13.8713 5.58534 12.5096C8.08649 11.4674 30.7957 2.13984 32.4365 1.4659C35.5266 -0.0824251 38.8232 1.20989 39.3507 1.43589C40.534 1.91968 61.5273 10.5062 66.0639 12.6664C70.7394 14.8928 71.9868 18.8925 71.9868 20.9048C71.9868 30.0151 70.409 38.5294 67.2972 46.2112C64.7841 52.429 61.2223 58.1693 56.7668 63.1819C48.1706 72.8558 39.572 76.2852 39.489 76.3154C38.4614 76.669 37.3802 76.8417 36.2935 76.8256ZM34.2714 71.8168C35.0169 71.9839 36.7332 72.2346 37.8519 71.8266C39.273 71.3083 46.4698 67.5763 53.1951 60.0081C62.487 49.5514 67.2018 36.4064 67.2087 20.9384C67.1921 20.625 66.9695 18.3899 64.0096 16.9805C59.561 14.8621 37.7402 5.9396 37.5203 5.84967L37.46 5.82411C37.0028 5.63248 35.5474 5.22885 34.5443 5.75455L34.3434 5.84819C34.1002 5.94809 9.99406 15.849 7.42312 16.9202C5.62468 17.6695 4.98391 19.5259 4.98391 21.0134C4.98391 21.1221 4.98109 21.2802 4.97712 21.4846C4.77165 32.0684 7.22081 58.1119 34.2714 71.8168Z" fill="#3F3D56"/>
<path d="M33.4357 3.63821C33.4357 3.63821 9.1105 13.6289 6.50422 14.7149C3.89794 15.8008 2.59481 18.4071 2.59481 21.0134C2.59481 23.6196 0.640105 57.628 33.4357 74.071C33.4357 74.071 36.4122 74.8946 38.6705 74.071C40.9287 73.2474 69.5978 59.3473 69.5978 20.9048C69.5978 20.9048 69.5978 16.9954 65.0368 14.8235C60.4758 12.6516 38.4242 3.63821 38.4242 3.63821C38.4242 3.63821 35.7162 2.44367 33.4357 3.63821Z" fill="#D68572"/>
<path opacity="0.1" d="M36.042 11.457V64.7539C36.042 64.7539 11.4996 52.9402 11.7168 21.8821L36.042 11.457Z" fill="black"/>
<path d="M34.8633 42.7075V37.4831C36.5675 37.3982 37.8977 36.9734 38.8537 36.2089C39.8305 35.4444 40.3189 34.3931 40.3189 33.0552V32.6092C40.3189 31.5261 39.9864 30.666 39.3213 30.0288C38.6563 29.3705 37.7626 29.0413 36.6403 29.0413C35.4349 29.0413 34.4684 29.3917 33.741 30.0926C33.0344 30.7934 32.5564 31.6853 32.307 32.7685L30 31.8765C30.1871 31.1969 30.4572 30.5492 30.8106 29.9333C31.1847 29.2962 31.6419 28.744 32.1823 28.2768C32.7434 27.7883 33.3981 27.406 34.1463 27.1299C34.8945 26.8539 35.757 26.7158 36.7338 26.7158C38.6667 26.7158 40.1942 27.2574 41.3165 28.3405C42.4388 29.4236 43 30.889 43 32.7366C43 33.756 42.8233 34.648 42.47 35.4125C42.1375 36.1558 41.701 36.7929 41.1607 37.3239C40.6203 37.8548 40.0072 38.2795 39.3213 38.5981C38.6355 38.9167 37.9496 39.1396 37.2638 39.2671V42.7075H34.8633ZM36.0791 49.7158C35.4141 49.7158 34.9257 49.5459 34.6139 49.2061C34.3229 48.8663 34.1775 48.4203 34.1775 47.8682V47.454C34.1775 46.9019 34.3229 46.4559 34.6139 46.1161C34.9257 45.7763 35.4141 45.6064 36.0791 45.6064C36.7442 45.6064 37.2222 45.7763 37.5132 46.1161C37.8249 46.4559 37.9808 46.9019 37.9808 47.454V47.8682C37.9808 48.4203 37.8249 48.8663 37.5132 49.2061C37.2222 49.5459 36.7442 49.7158 36.0791 49.7158Z" fill="white"/>
</g>
<defs>
<clipPath id="clip0_75_4171">
<rect width="72" height="76.125" fill="white" transform="translate(0 0.71582)"/>
</clipPath>
</defs>
</svg>
