<svg width="28" height="21" viewBox="0 0 28 21" fill="none" xmlns="http://www.w3.org/2000/svg">
<mask id="mask0_80_4340" style="mask-type:alpha" maskUnits="userSpaceOnUse" x="0" y="0" width="28" height="21">
<path d="M25.3333 0.5H2.66667C1.19391 0.5 0 1.69391 0 3.16667V17.8333C0 19.3061 1.19391 20.5 2.66667 20.5H25.3333C26.8061 20.5 28 19.3061 28 17.8333V3.16667C28 1.69391 26.8061 0.5 25.3333 0.5Z" fill="white"/>
</mask>
<g mask="url(#mask0_80_4340)">
<path d="M25.3333 0.5H2.66667C1.19391 0.5 0 1.69391 0 3.16667V17.8333C0 19.3061 1.19391 20.5 2.66667 20.5H25.3333C26.8061 20.5 28 19.3061 28 17.8333V3.16667C28 1.69391 26.8061 0.5 25.3333 0.5Z" fill="#00773C"/>
<path fill-rule="evenodd" clip-rule="evenodd" d="M21.3333 13.8333V12.5H6.66666L9.33333 13.8333H17.3333C17.3333 14.5693 18.2293 15.1667 19.3333 15.1667C20.4373 15.1667 21.3333 14.5693 21.3333 13.8333ZM11.64 5.708C11.624 5.708 11.6 5.716 11.5693 5.73467C11.4973 5.78267 11.356 5.93067 11.3507 6.10133C11.3467 6.19867 11.328 6.19867 11.3907 6.26133C11.436 6.32533 11.484 6.32 11.5747 6.27067C11.628 6.23067 11.6453 6.208 11.664 6.14267C11.6853 6.036 11.548 6.196 11.5307 6.07333C11.5 5.96133 11.588 5.91333 11.6707 5.80667C11.6733 5.75333 11.6733 5.71333 11.64 5.71067V5.708ZM12.9773 5.71467C12.9507 5.72 12.92 5.75467 12.876 5.832C12.8453 5.91467 12.7107 6.04 12.8093 6.29867C12.8867 6.46267 12.92 6.728 12.884 7.02533C12.828 7.10933 12.8173 7.13867 12.744 7.22267C12.6427 7.33333 12.5307 7.30533 12.448 7.26267C12.368 7.20933 12.3067 7.18267 12.2707 7.01467C12.2773 6.748 12.2933 6.30533 12.244 6.212C12.172 6.068 12.052 6.11867 12.0013 6.16267C11.7573 6.38933 11.636 6.76667 11.5613 7.06933C11.4947 7.288 11.4213 7.224 11.3707 7.136C11.2467 7.01867 11.2373 6.10933 11.088 6.26C10.848 6.94533 11.2253 7.696 11.488 7.62267C11.6747 7.70267 11.7947 7.34267 11.872 6.94933C11.9253 6.83867 11.9653 6.82533 11.992 6.88267C11.9853 7.40533 12.032 7.52267 12.1653 7.68C12.464 7.912 12.712 7.70933 12.732 7.69067L12.9653 7.45867C13.0187 7.40533 13.0853 7.4 13.1587 7.448C13.2307 7.51467 13.2213 7.62533 13.372 7.70133C13.5027 7.75467 13.776 7.71467 13.8387 7.604C13.9253 7.45733 13.9453 7.40667 13.9853 7.35067C14.0467 7.27067 14.152 7.30667 14.152 7.332C14.1427 7.37867 14.0813 7.42533 14.1227 7.50533C14.196 7.55867 14.2133 7.524 14.256 7.512C14.408 7.44 14.5227 7.10933 14.5227 7.10933C14.5293 6.98667 14.46 6.996 14.416 7.02133C14.356 7.05733 14.3533 7.06933 14.296 7.10533C14.22 7.116 14.076 7.16533 14.0053 7.05467C13.932 6.92133 13.932 6.73733 13.876 6.60133C13.876 6.59333 13.7787 6.392 13.868 6.38C13.912 6.388 14.0107 6.41333 14.0253 6.332C14.0733 6.252 13.9227 6.02533 13.82 5.91333C13.732 5.816 13.6093 5.804 13.4907 5.90267C13.4067 5.98 13.42 6.06533 13.4027 6.14667C13.3827 6.24 13.3867 6.356 13.4827 6.48C13.5653 6.64267 13.716 6.85333 13.6653 7.14933C13.6653 7.14933 13.5787 7.29067 13.4253 7.272C13.3587 7.25867 13.2547 7.232 13.1987 6.81867C13.1587 6.508 13.2093 6.072 13.0787 5.868C13.048 5.792 13.0227 5.71733 12.98 5.72133L12.9773 5.71467ZM12.5533 5.74933C12.5133 5.75333 12.4693 5.8 12.4333 5.88933C12.4027 5.95867 12.364 6.316 12.3707 6.316C12.344 6.42267 12.4813 6.468 12.544 6.332C12.6373 6.07867 12.6373 5.972 12.6427 5.868C12.6293 5.788 12.5933 5.748 12.5533 5.75067V5.74933ZM14.1173 5.776C14.0773 5.78133 14.044 5.80533 14.032 5.86667C14.0147 6.008 14.024 6.08667 14.048 6.20533C14.0653 6.28533 14.1813 6.416 14.2373 6.49333C14.508 6.85733 14.7707 7.22267 15.0213 7.6C15.0613 7.88267 15.088 8.15733 15.108 8.432C15.1507 9.032 15.1613 9.77867 15.1253 10.412C15.2373 10.416 15.4187 10.2293 15.4813 9.95867C15.5213 9.58 15.468 8.812 15.4627 8.588L15.4493 8.27067C15.7427 8.75067 16.0253 9.25733 16.3027 9.812C16.4053 9.764 16.3827 9.192 16.324 9.112C16.1 8.632 15.7907 8.15733 15.6933 7.97467C15.6573 7.908 15.536 7.72533 15.3933 7.51333C15.3667 7.20933 15.3373 6.95333 15.3187 6.876C15.272 6.556 15.4493 6.912 15.4253 6.72667C15.3667 6.40667 15.1907 6.19067 14.9827 5.89733C14.916 5.804 14.916 5.78267 14.8133 5.92133C14.7533 6.06133 14.7533 6.17867 14.7733 6.288C14.744 6.248 14.7107 6.20267 14.6627 6.144L14.3227 5.856C14.276 5.82267 14.1853 5.772 14.1173 5.776ZM18.752 5.82533C18.732 5.82267 18.712 5.832 18.6853 5.868C18.6387 5.908 18.5893 5.984 18.592 6.08133C18.6013 6.248 18.632 6.42 18.6427 6.588L18.656 6.65467C18.6373 6.63333 18.6213 6.61467 18.612 6.60667C18.2827 6.26 18.7627 6.548 18.548 6.28267C18.368 6.08267 18.3147 6.02133 18.1613 5.90133C18.0813 5.85333 18.036 5.75733 18.0107 5.92C18 6.06267 17.9893 6.22933 17.9973 6.34933C17.9973 6.416 18.068 6.54267 18.128 6.616C18.3467 6.88667 18.5707 7.17333 18.7947 7.472C18.8427 8.08133 18.8547 8.64 18.9013 9.25067C18.896 9.512 18.816 9.85867 18.7413 9.89067C18.7413 9.89067 18.624 9.95733 18.5467 9.884C18.4893 9.86133 18.264 9.50667 18.264 9.50667C18.148 9.4 18.0707 9.43067 17.9893 9.50667C17.7627 9.72533 17.6587 10.136 17.5053 10.4187C17.4653 10.4813 17.3547 10.536 17.2307 10.4133C16.9147 9.98133 17.0973 9.36667 17.06 9.52533C16.78 9.84267 16.9027 10.368 16.9667 10.4813C17.06 10.668 17.1347 10.788 17.3133 10.8773C17.48 10.9973 17.6067 10.924 17.6787 10.8373C17.844 10.6667 17.8467 10.228 17.924 10.1413C17.9773 9.98133 18.1147 10.008 18.1813 10.08C18.248 10.1733 18.3227 10.2333 18.4173 10.284C18.572 10.42 18.756 10.444 18.9373 10.32C19.0613 10.2507 19.1427 10.16 19.2147 9.98133C19.2947 9.77333 19.2547 8.68 19.2373 8.072L19.584 8.57333C19.632 9.10667 19.6547 9.63333 19.6373 10.1373C19.6267 10.2373 19.988 9.83867 19.984 9.64933C19.984 9.48533 19.9867 9.33467 19.984 9.196C20.1613 9.476 20.3307 9.76 20.4907 10.0493C20.5907 9.996 20.5573 9.432 20.4947 9.356C20.3267 9.07333 20.1107 8.76933 19.944 8.532C19.9107 8.23467 19.8667 7.884 19.8453 7.776C19.8147 7.608 19.7827 7.356 19.7347 7.15733C19.7213 7.08133 19.6813 6.83333 19.6947 6.81067C19.7133 6.75333 19.788 6.81067 19.824 6.74667C19.8773 6.68667 19.6347 6.05333 19.5107 5.87467C19.4667 5.79467 19.3853 5.82133 19.2867 5.95467C19.1933 6.04 19.228 6.23733 19.2627 6.42533C19.3533 6.90533 19.436 7.39067 19.5 7.87867C19.38 7.69867 19.2333 7.48267 19.0893 7.276L19.0707 7.18267C19.0707 7.172 19.052 6.78933 19.0347 6.69867C19.0307 6.66133 19.0213 6.65067 19.0613 6.656C19.1013 6.69067 19.1067 6.692 19.132 6.704C19.1747 6.70933 19.212 6.64 19.1853 6.57467L18.7987 5.86267C18.7853 5.84533 18.7667 5.82933 18.7453 5.82667L18.752 5.82533ZM6.792 5.83867C6.71866 5.836 6.64133 5.87867 6.672 5.96533C6.65333 6.012 6.81066 6.16933 6.83866 6.256C6.86133 6.31867 6.812 6.516 6.86533 6.536C6.912 6.556 6.97733 6.39733 7.00133 6.252C7.01466 6.172 7.00533 5.89733 6.81866 5.84133C6.80933 5.83867 6.8 5.83867 6.78933 5.83733L6.792 5.83867ZM20.4187 5.83867C20.4013 5.84133 20.3813 5.86533 20.352 5.932C20.2787 6.052 20.2533 6.26533 20.2827 6.452C20.456 7.63867 20.5893 8.788 20.616 9.83867C20.6 9.94 20.5947 9.99333 20.5493 10.1187C20.4453 10.252 20.3307 10.4173 20.2227 10.4973C20.116 10.5773 19.8867 10.6547 19.812 10.7133C19.572 10.8493 19.572 11.0067 19.764 11.0133C20.0947 10.9733 20.4867 10.9467 20.756 10.54C20.828 10.4267 20.9133 10.1173 20.916 9.92667C20.9427 8.82 20.9027 7.73333 20.736 6.932C20.7253 6.852 20.6907 6.67467 20.704 6.652C20.724 6.596 20.832 6.656 20.8707 6.59333C20.928 6.53467 20.5907 6.104 20.4733 5.92C20.4493 5.87467 20.4333 5.836 20.4147 5.84L20.4187 5.83867ZM16.948 5.85733C16.9347 5.86 16.916 5.88133 16.8787 5.93067C16.7853 6.232 16.7533 6.47733 16.7893 6.66667C17.0293 7.90667 17.2693 9.03333 17.232 10.2133C17.344 10.2133 17.4747 9.956 17.5307 9.7C17.5613 9.34667 17.5093 9.132 17.5013 8.92667C17.492 8.71867 17.2667 7.03867 17.2213 6.88267C17.1653 6.58667 17.44 6.84267 17.4107 6.672C17.3147 6.45333 17.0773 6.13867 17.0053 5.948C16.9787 5.89733 16.9733 5.85067 16.952 5.85467L16.948 5.85733ZM8.50266 5.88133C8.476 5.88667 8.44533 5.91067 8.436 5.948C8.42933 5.97467 8.44666 6.01867 8.42266 6.032C8.40933 6.04533 8.35866 6.036 8.36133 5.96533C8.36133 5.94133 8.344 5.91733 8.33466 5.90267C8.324 5.89733 8.31733 5.896 8.29866 5.896C8.276 5.896 8.276 5.90267 8.264 5.92267C8.25866 5.94133 8.25066 5.96 8.25066 5.98133C8.248 6.008 8.23733 6.01467 8.22 6.01867C8.19866 6.01867 8.20266 6.02133 8.18666 6.00933C8.17333 6 8.16266 5.996 8.16266 5.97733C8.16266 5.95733 8.15733 5.924 8.152 5.91333C8.14266 5.9 8.128 5.89467 8.112 5.89067C8.024 5.89067 8.01866 5.99467 8.02266 6.032C8.016 6.04 8.01333 6.21867 8.13333 6.26933C8.29333 6.34667 8.59733 6.31333 8.58666 6.05333C8.58666 6.03067 8.58 5.95333 8.57733 5.93333C8.56133 5.89333 8.53066 5.88 8.50133 5.884L8.50266 5.88133ZM10.6707 5.884C10.6147 5.88667 10.564 5.90267 10.524 5.924C10.4173 6.02667 10.3907 6.19067 10.476 6.29333C10.556 6.33333 10.64 6.41333 10.5853 6.46C10.3533 6.70667 9.74933 7.12133 9.71866 7.19733V7.20533H9.724V7.208C9.75466 7.228 10.1333 7.228 10.1747 7.208H10.1773C10.308 7.15867 10.924 6.45467 10.924 6.45467C10.892 6.428 10.8627 6.40667 10.8307 6.37867C10.796 6.34933 10.8 6.32 10.8307 6.29067C10.9827 6.20267 10.9347 6.00667 10.8547 5.91733C10.788 5.888 10.7267 5.87733 10.6707 5.88133V5.884ZM16.3373 5.884C16.3213 5.888 16.3013 5.91067 16.2707 5.97733C16.1973 6.09733 16.148 6.304 16.1547 6.49733C16.312 7.59067 16.36 8.54667 16.464 9.64C16.472 9.74667 16.456 9.89867 16.3867 9.96C16.1253 10.232 15.7507 10.5653 15.3427 10.72C15.2987 10.7693 15.452 10.9787 15.6493 10.9787C15.98 10.9387 16.2707 10.7547 16.5427 10.2653C16.6133 10.152 16.74 9.908 16.7427 9.71867C16.7693 8.60933 16.6893 7.74533 16.5213 6.94533C16.512 6.86533 16.5187 6.772 16.532 6.75067C16.5533 6.724 16.6253 6.75067 16.6653 6.688C16.7213 6.62933 16.5133 6.15067 16.396 5.968C16.372 5.92133 16.3587 5.884 16.3373 5.88533V5.884ZM7.55866 5.92C7.51333 5.92533 7.47066 5.96 7.44933 6.01333C7.44266 6.18667 7.44133 6.36 7.46266 6.52267C7.54266 6.80667 7.56533 7.056 7.604 7.34533C7.61733 7.73467 7.38 7.51333 7.39066 7.32133C7.444 7.07067 7.43066 6.67733 7.38266 6.57733C7.34266 6.47733 7.3 6.45333 7.20666 6.47067C7.13333 6.46533 6.94266 6.67067 6.88933 7.01733C6.88933 7.01733 6.844 7.19333 6.82533 7.35067C6.79866 7.528 6.68133 7.65467 6.59866 7.32667C6.528 7.08667 6.48533 6.5 6.36666 6.636C6.332 7.09467 6.292 7.90267 6.68133 7.98533C7.15333 8.03067 6.892 7.188 7.06266 7.03467C7.096 6.96133 7.156 6.96 7.16 7.05467V7.77067C7.15466 8.00267 7.30666 8.072 7.42666 8.12C7.55066 8.11067 7.632 8.11467 7.68 8.23467L7.74 9.47467C7.74 9.47467 8.02533 9.55467 8.03866 8.77733C8.052 8.32 7.94533 7.93733 8.008 7.848C8.01066 7.76 8.12266 7.75467 8.2 7.79867C8.324 7.88533 8.37866 7.992 8.57066 7.94933C8.864 7.86933 9.03733 7.728 9.04133 7.504C9.028 7.29067 9.00133 7.07733 8.908 6.864C8.92133 6.82667 8.85466 6.72667 8.868 6.688C8.91866 6.768 8.99866 6.76267 9.01466 6.688C8.96666 6.524 8.88933 6.368 8.764 6.30133C8.66133 6.208 8.51066 6.228 8.45466 6.41733C8.428 6.636 8.53466 6.89467 8.69466 7.10667C8.72666 7.18933 8.77466 7.32667 8.75333 7.45067C8.66933 7.49867 8.58533 7.47733 8.51333 7.404C8.51333 7.404 8.28266 7.23067 8.28266 7.19067C8.34533 6.79733 8.296 6.75067 8.26266 6.644C8.23866 6.492 8.16666 6.444 8.10933 6.34C8.05066 6.27733 7.972 6.27733 7.936 6.34C7.832 6.51733 7.88 6.9 7.95466 7.06933C8.008 7.22667 8.09066 7.32533 8.052 7.32533C8.02 7.412 7.95333 7.392 7.90533 7.28933C7.83866 7.076 7.82266 6.76133 7.82266 6.61867C7.80266 6.44267 7.78 6.06533 7.66266 5.96933C7.632 5.92667 7.596 5.912 7.56 5.916L7.55866 5.92ZM9.21466 5.92C9.192 5.92533 9.16533 5.93867 9.13466 5.94667C9.03466 5.97733 8.94133 6.064 8.97066 6.232C9.09066 6.952 9.16666 7.50267 9.28533 8.22267C9.30266 8.308 9.232 8.41867 9.14133 8.40933C8.98666 8.30267 8.948 8.08933 8.684 8.1C8.492 8.1 8.27333 8.31067 8.24666 8.51067C8.21466 8.67067 8.204 8.844 8.24666 8.98267C8.38 9.14267 8.54266 9.12667 8.684 9.08933C8.8 9.04267 8.89733 8.92933 8.93733 8.956C8.964 9 8.93466 9.37467 8.39066 9.66267C8.05466 9.81467 7.788 9.84933 7.644 9.57733C7.556 9.40667 7.652 8.756 7.43333 8.90533C6.78533 10.5747 8.94933 10.8067 9.19066 8.97467C9.20666 8.92133 9.25333 8.87067 9.288 8.884C9.30133 8.89067 9.31466 8.91067 9.32 8.948C9.26933 10.6067 7.64533 10.7213 7.37066 10.1987C7.30133 10.076 7.28133 9.80133 7.27466 9.63867C7.26133 9.53867 7.23733 9.48133 7.208 9.45867C7.14133 9.40933 7.05333 9.53867 7.03466 9.76133C7.008 9.94133 7.01466 9.99067 7.01466 10.164C7.10266 11.4747 9.192 10.9107 9.532 9.83067C9.7 9.27067 9.528 8.848 9.58533 8.796L9.58933 8.79333H9.59333L9.6 8.79067C9.808 9.01467 10.0987 8.81733 10.1627 8.74133C10.1893 8.70133 10.2587 8.67467 10.3067 8.728C10.4667 8.84267 10.752 8.788 10.8107 8.58133C10.8453 8.38133 10.8747 8.176 10.8813 7.96133C10.7747 7.99467 10.6893 8.01867 10.6547 8.05467C10.6467 8.064 10.6413 8.07467 10.6387 8.08533L10.612 8.26267C10.612 8.26933 10.6093 8.27333 10.6067 8.276C10.6027 8.28533 10.5933 8.292 10.588 8.296C10.5507 8.316 10.4853 8.30533 10.4813 8.25067C10.432 8.024 10.2253 7.99467 10.1 8.348C10.016 8.41467 9.86 8.428 9.84666 8.32667C9.86666 8.08933 9.77066 8.05733 9.58 8.16933L9.396 6.78267C9.476 6.77867 9.548 6.836 9.62266 6.74533C9.54266 6.5 9.376 6.00133 9.28133 5.95333H9.27866L9.26533 5.94C9.26533 5.93733 9.26133 5.936 9.25866 5.93467L9.25333 5.92667C9.248 5.92667 9.24266 5.924 9.24 5.92267C9.23066 5.92 9.22266 5.92 9.21333 5.92H9.21466ZM15.6707 5.92533C15.588 5.92267 15.4973 5.97467 15.532 6.07867C15.5107 6.136 15.7093 6.328 15.7413 6.432C15.7987 6.592 15.6973 6.748 15.7573 6.77067C15.8133 6.79467 15.8907 6.604 15.9173 6.42667C15.952 6.28267 15.8507 5.98933 15.704 5.92933L15.6707 5.92667V5.92533ZM10.64 6.1C10.6773 6.09733 10.7227 6.132 10.7467 6.18C10.7693 6.23333 10.7573 6.28267 10.72 6.292C10.68 6.30133 10.6293 6.268 10.6053 6.21467C10.5813 6.16133 10.592 6.112 10.632 6.10267H10.64V6.1ZM19.9693 6.34267C19.8933 6.34 19.8093 6.396 19.844 6.50933C19.8253 6.57067 20.004 6.77867 20.0347 6.89333C20.0613 6.97333 19.9947 7.23467 20.048 7.25867C20.0987 7.28533 20.168 7.07733 20.1947 6.88533C20.2107 6.77867 20.1333 6.412 20.0013 6.34667C19.992 6.344 19.9813 6.34133 19.9707 6.34133L19.9693 6.34267ZM14.8093 6.47067C14.8187 6.50133 14.8253 6.532 14.8293 6.564C14.8453 6.63067 14.8587 6.69733 14.872 6.76667C14.8133 6.684 14.7653 6.61733 14.7427 6.59333C14.6093 6.43333 14.7453 6.48933 14.8093 6.47067ZM16 7.05467C15.9707 7.06 15.9427 7.08533 15.9333 7.12533C15.9253 7.14933 15.944 7.192 15.92 7.20533C15.9067 7.21867 15.8533 7.21067 15.8573 7.13867C15.8573 7.11467 15.84 7.08933 15.8307 7.076C15.82 7.06933 15.8133 7.06667 15.7947 7.06667C15.772 7.06667 15.772 7.07333 15.76 7.09333C15.7547 7.112 15.7467 7.13067 15.7467 7.15333C15.7467 7.18 15.736 7.188 15.7173 7.19333C15.696 7.19333 15.7 7.19333 15.6827 7.184C15.672 7.17067 15.66 7.168 15.66 7.14933C15.66 7.12933 15.656 7.09867 15.6493 7.08533C15.64 7.072 15.6267 7.068 15.6093 7.06267C15.5227 7.06267 15.516 7.164 15.5213 7.20133C15.516 7.20933 15.512 7.39067 15.632 7.44133C15.7947 7.51733 16.0987 7.48133 16.0853 7.22267C16.0853 7.2 16.0787 7.12267 16.0773 7.10267C16.06 7.06267 16.0293 7.04933 16.0013 7.05333L16 7.05467ZM10.5733 7.108C10.5547 7.108 10.528 7.11333 10.4973 7.132C10.3547 7.20933 10.3 7.43867 10.3907 7.572C10.4707 7.692 10.604 7.648 10.6213 7.648C10.7613 7.66667 10.844 7.38667 10.844 7.38667C10.844 7.38667 10.848 7.30667 10.684 7.456C10.612 7.46933 10.604 7.44267 10.5853 7.40267C10.5693 7.332 10.572 7.256 10.6053 7.18533C10.6213 7.14133 10.6053 7.11333 10.5733 7.11067V7.108ZM18.244 7.144C18.164 7.14 18.08 7.192 18.0573 7.3C18.0573 7.364 18.0867 7.39867 18.0813 7.45733C18.0747 7.49067 18.0413 7.51067 17.9587 7.47333C17.972 7.46 17.9053 7.36933 17.9053 7.36933C17.8427 7.32933 17.7587 7.36933 17.7027 7.40667C17.672 7.46267 17.6493 7.55733 17.684 7.65333C17.7747 7.82267 18.088 8.11067 18.2373 8.11333C18.24 7.96133 18.2547 7.75867 18.264 7.63333C18.2667 7.58533 18.2773 7.53333 18.324 7.52133C18.3693 7.508 18.448 7.56667 18.448 7.51733C18.44 7.42133 18.4213 7.27733 18.368 7.21067C18.3387 7.17067 18.292 7.14667 18.2453 7.144H18.244ZM11.8933 7.67333L11.8893 7.67733C11.8893 7.67733 11.8867 7.67733 11.8853 7.68C11.8693 7.69333 11.8507 7.72 11.8093 7.74667C11.7387 7.82667 11.7267 7.884 11.7293 8.044C11.7347 8.06133 11.8627 8.42133 11.9733 8.67333C12.048 8.936 12.116 9.23733 12.0667 9.52133C11.8933 9.89733 11.5467 10.2347 11.2093 10.4187C11.036 10.472 10.8893 10.4533 10.8493 10.416C10.7507 10.3493 10.7493 10.2293 10.756 10.2107V10.2067C11.0387 10.0093 11.3627 9.84933 11.616 9.31733C11.6907 9.11333 11.7147 8.99067 11.64 8.67733C11.6107 8.55733 11.5733 8.464 11.4933 8.37867H11.496C11.544 8.356 11.6693 8.448 11.6893 8.392C11.6587 8.24 11.556 8.03867 11.4427 7.93467C11.3413 7.84133 11.2293 7.832 11.1387 7.916C11.0347 7.97467 11.0133 8.18267 11.0627 8.364C11.1187 8.5 11.2693 8.524 11.376 8.8C11.3787 8.81867 11.412 9.00667 11.3587 9.084C11.3133 9.22 10.752 9.66267 10.712 9.68933L10.708 9.692L10.7053 9.69467H10.7027H10.7V9.69067C10.6973 9.68 10.7 9.65067 10.7 9.60667C10.696 9.524 10.7307 9.336 10.7267 9.30267V9.3C10.54 9.42 10.4773 9.78667 10.444 9.896C9.97333 10.22 9.44 10.4613 9.132 10.7893C8.972 11.0427 10.236 10.504 10.3827 10.4387L10.3867 10.4427C10.416 10.4733 10.4173 10.58 10.5013 10.6773C10.6347 10.8547 10.912 10.964 11.184 10.896C11.64 10.732 11.904 10.4213 12.1707 10.076C12.208 10.0227 12.268 9.97733 12.324 10.02C12.5067 10.4307 13.0373 10.724 13.7213 10.7533C13.8813 10.5613 13.8053 10.4667 13.7413 10.4267C13.7213 10.4133 13.4013 10.288 13.3507 10.164C13.32 10.0493 13.396 9.94667 13.548 9.87067C13.988 9.81733 14.42 9.75733 14.8387 9.62267C14.8427 9.48133 14.9253 9.272 14.9813 9.18C15.0213 9.11733 15.044 9.11067 15.0533 9.10267V9.1H15.056V9.096V9.08267L14.984 9.04L13.58 9.03467C13.5627 9.028 13.5507 9.02133 13.5427 9.01467L13.54 9.01067C13.54 9.01067 13.5373 9.01067 13.5373 9.008C13.5373 9.00533 13.5347 9.00533 13.5347 9.00533V9.00667V9.004V9.00133V8.99867L13.5373 8.99467C13.544 8.98667 13.5613 8.97733 13.5813 8.968C13.9173 8.924 14.512 8.82667 14.552 8.25467C14.5453 7.956 14.424 7.76133 14.0587 7.708C13.7893 7.728 13.5973 7.988 13.628 8.27333C13.6147 8.34933 13.6547 8.5 13.5747 8.51733C13.06 8.56533 12.4973 8.888 12.4787 9.12H12.476H12.4733H12.4707C12.4707 9.12267 12.468 9.12267 12.4667 9.12267H12.4613H12.4587H12.4533C12.42 9.112 12.3773 9.056 12.384 8.98C12.364 8.58 12.2333 8.12667 12.0307 7.78C11.9573 7.70667 11.924 7.67733 11.9053 7.67333H11.9013H11.8973H11.8947H11.8933ZM13.2373 7.884C13.2107 7.88933 13.18 7.91333 13.1707 7.95333C13.164 7.98 13.184 8.02267 13.16 8.036C13.1467 8.04933 13.0933 8.04133 13.096 7.96933C13.096 7.94667 13.0787 7.92133 13.0693 7.90667C13.0587 7.9 13.052 7.89867 13.0347 7.89867C13.012 7.89867 13.0107 7.904 12.9987 7.92267C12.992 7.94133 12.9853 7.96267 12.9853 7.98267C12.9827 8.00933 12.972 8.01733 12.9547 8.02C12.9333 8.02 12.9387 8.024 12.9213 8.01333C12.9107 8.00267 12.8973 7.99733 12.8973 7.97867C12.8973 7.95867 12.8933 7.92533 12.888 7.912C12.8787 7.90267 12.864 7.89867 12.848 7.89333C12.7587 7.89333 12.7547 7.99333 12.7587 8.032C12.752 8.03867 12.748 8.21867 12.868 8.26933C13.028 8.34667 13.4147 8.30133 13.3213 8.052C13.3213 8.02933 13.3147 7.952 13.3133 7.932C13.296 7.892 13.2653 7.87867 13.236 7.88267L13.2373 7.884ZM18.6573 8.10667H18.644C18.644 8.10667 17.8947 8.64 17.8773 8.65867C17.8027 8.72533 17.84 8.956 17.8773 8.92933C17.9307 8.94933 18.684 8.43867 18.6693 8.37867C18.7027 8.38133 18.7187 8.116 18.656 8.10533L18.6573 8.10667ZM13.9453 8.18667C13.9747 8.18267 14.0147 8.19333 14.052 8.21333C14.1093 8.248 14.1453 8.296 14.1387 8.33333V8.33867C14.136 8.33867 14.136 8.33867 14.136 8.34133V8.344C14.136 8.344 14.1333 8.344 14.1333 8.34667C14.1333 8.34933 14.1293 8.352 14.1267 8.35467C14.1 8.38133 14.0387 8.376 13.98 8.34133C13.924 8.31067 13.8907 8.26133 13.8933 8.22667V8.22267L13.9 8.20933C13.9 8.20933 13.9 8.20667 13.9027 8.20533L13.9093 8.19733C13.9187 8.19067 13.9307 8.184 13.9453 8.184V8.18667ZM7.388 8.32C7.00133 8.328 6.432 8.82933 6.41733 9.10667L7.644 8.52C7.57733 8.41867 7.64 8.328 7.388 8.32ZM8.64533 8.49333C8.68266 8.496 8.72266 8.51467 8.744 8.568C8.76266 8.61733 8.744 8.668 8.72133 8.69333V8.69733C8.70266 8.71867 8.64666 8.71067 8.60533 8.71067C8.556 8.708 8.532 8.7 8.50266 8.66C8.48666 8.61333 8.52933 8.56933 8.54933 8.53733L8.55866 8.524C8.572 8.51067 8.59866 8.5 8.62533 8.49733L8.64266 8.49467L8.64533 8.49333ZM18.512 8.64933C18.4413 8.65733 18.376 8.72267 18.4053 8.82667C18.3867 8.888 18.4987 9.10267 18.5293 9.216C18.556 9.296 18.4947 9.52667 18.5493 9.54933C18.6 9.576 18.732 9.416 18.728 9.21067C18.7413 9.104 18.6907 8.71733 18.5587 8.65333C18.5427 8.64933 18.5267 8.648 18.5107 8.64933H18.512ZM10.1333 9.028C10.072 9.032 10.0173 9.064 10.0427 9.15067C10.0387 9.212 10.216 9.288 10.2253 9.43067C10.2493 9.492 10.1853 9.684 10.2387 9.7C10.2867 9.72 10.3533 9.56667 10.3787 9.428C10.392 9.35067 10.3173 9.08133 10.192 9.032C10.172 9.02667 10.152 9.02533 10.132 9.02667L10.1333 9.028ZM12.64 9.36933H12.656C12.8133 9.412 13.0427 9.41733 13.2427 9.436C13.4067 9.44933 13.4867 9.57467 13.336 9.62933C13.184 9.68 13.0387 9.72267 13.0387 9.93867C13.0573 10.0453 13.052 10.1013 13.036 10.1253C13.036 10.1293 13.032 10.132 13.0307 10.1333C13.0307 10.1333 13.0307 10.136 13.028 10.136V10.1387H13.024L13.0147 10.1427H13.008C12.972 10.1493 12.92 10.116 12.8813 10.0947C12.788 10.028 12.528 9.868 12.4907 9.52133C12.4853 9.44133 12.544 9.37467 12.6373 9.368L12.64 9.36933ZM6.51466 9.636C6.50533 9.636 6.488 9.66533 6.46133 9.69867C6.22933 10.0653 6.208 10.6133 6.336 10.7787C6.40266 10.8547 6.51466 10.8893 6.59733 10.8653C6.744 10.8027 6.80666 10.508 6.77066 10.4013C6.724 10.3253 6.68533 10.3133 6.63733 10.3773C6.53466 10.584 6.49066 10.4413 6.484 10.324C6.468 10.1067 6.48933 9.904 6.51333 9.744C6.52666 9.664 6.52666 9.63333 6.51333 9.63333L6.51466 9.636ZM14.3773 10.1187C14.36 10.1187 14.3427 10.1213 14.324 10.132C14.32 10.132 14.1587 10.2387 14.1067 10.316C14.0747 10.34 14.08 10.36 14.088 10.4027C14.112 10.46 14.1547 10.4427 14.2053 10.416C14.272 10.4053 14.3027 10.4493 14.2987 10.528C14.268 10.628 14.312 10.664 14.312 10.6707C14.312 10.676 14.3747 10.7307 14.4493 10.688C14.6053 10.628 14.7027 10.568 14.9227 10.5213C14.98 10.5213 14.976 10.3667 14.8853 10.3613C14.7653 10.3667 14.6587 10.3747 14.5387 10.468C14.4653 10.484 14.4533 10.4387 14.436 10.3987C14.4173 10.3 14.4787 10.2307 14.4653 10.156C14.468 10.16 14.428 10.124 14.376 10.1213L14.3773 10.1187ZM19.412 10.3053L19.3053 10.316C19.2573 10.3253 19.2413 10.3467 19.232 10.4053C19.236 10.492 19.2893 10.488 19.3453 10.5227C19.3773 10.5627 19.3987 10.6 19.3427 10.6693C19.2893 10.716 19.2533 10.7427 19.2 10.7893C19.1773 10.832 19.16 10.896 19.2373 10.9173C19.3773 10.9573 19.7013 10.7467 19.7013 10.744C19.7547 10.704 19.736 10.628 19.732 10.628C19.7 10.5933 19.6307 10.6147 19.5853 10.608C19.5627 10.608 19.492 10.5973 19.524 10.5333C19.5533 10.4933 19.564 10.4707 19.584 10.4213C19.604 10.3733 19.584 10.3413 19.5067 10.3147C19.4667 10.3067 19.44 10.304 19.4093 10.3053H19.412ZM17.4747 15.452C17.8347 15.4693 18.1707 15.456 18.528 15.4733C18.5867 15.5213 18.5587 15.6333 18.5213 15.652L18.5147 15.6547H18.5107H18.5053L18.204 15.6467V15.6293C18.1747 15.5467 17.9747 15.552 17.9267 15.616V15.62C17.924 15.62 17.9227 15.624 17.9227 15.6253L17.92 15.632V15.648C17.76 15.668 17.62 15.6427 17.4627 15.6373C17.416 15.58 17.4227 15.4773 17.476 15.4507L17.4747 15.452Z" fill="white"/>
<path d="M25.3333 1.16666H2.66667C1.5621 1.16666 0.666672 2.06209 0.666672 3.16666V17.8333C0.666672 18.9379 1.5621 19.8333 2.66667 19.8333H25.3333C26.4379 19.8333 27.3333 18.9379 27.3333 17.8333V3.16666C27.3333 2.06209 26.4379 1.16666 25.3333 1.16666Z" stroke="black" stroke-opacity="0.1"/>
</g>
</svg>
