<svg width="28" height="28" viewBox="0 0 28 28" fill="none" xmlns="http://www.w3.org/2000/svg">
<path d="M2.5715 11.4286C2.10293 11.4286 1.71436 11.0401 1.71436 10.5715V7.71436C1.71436 4.40007 4.4115 1.71436 7.71436 1.71436H10.5715C11.0401 1.71436 11.4286 2.10293 11.4286 2.5715C11.4286 3.04007 11.0401 3.42864 10.5715 3.42864H7.71436C5.34864 3.42864 3.42864 5.34864 3.42864 7.71436V10.5715C3.42864 11.0401 3.04007 11.4286 2.5715 11.4286Z" fill="#D68572"/>
<path d="M25.4287 11.4286C24.9601 11.4286 24.5715 11.0401 24.5715 10.5715V7.71436C24.5715 5.34864 22.6515 3.42864 20.2858 3.42864H17.4287C16.9601 3.42864 16.5715 3.04007 16.5715 2.5715C16.5715 2.10293 16.9601 1.71436 17.4287 1.71436H20.2858C23.5887 1.71436 26.2858 4.40007 26.2858 7.71436V10.5715C26.2858 11.0401 25.8972 11.4286 25.4287 11.4286Z" fill="#D68572"/>
<path d="M20.2858 26.2858H18.5715C18.1029 26.2858 17.7144 25.8972 17.7144 25.4286C17.7144 24.9601 18.1029 24.5715 18.5715 24.5715H20.2858C22.6515 24.5715 24.5715 22.6515 24.5715 20.2858V18.5715C24.5715 18.1029 24.9601 17.7144 25.4286 17.7144C25.8972 17.7144 26.2858 18.1029 26.2858 18.5715V20.2858C26.2858 23.6001 23.5886 26.2858 20.2858 26.2858Z" fill="#D68572"/>
<path d="M10.5715 26.2858H7.71436C4.4115 26.2858 1.71436 23.6001 1.71436 20.2858V17.4287C1.71436 16.9601 2.10293 16.5715 2.5715 16.5715C3.04007 16.5715 3.42864 16.9601 3.42864 17.4287V20.2858C3.42864 22.6515 5.34864 24.5715 7.71436 24.5715H10.5715C11.0401 24.5715 11.4286 24.9601 11.4286 25.4287C11.4286 25.8972 11.0401 26.2858 10.5715 26.2858Z" fill="#D68572"/>
<path d="M10.5715 6.28577H8.28577C6.98291 6.28577 6.28577 6.97148 6.28577 8.28577V10.5715C6.28577 11.8858 6.98291 12.5715 8.28577 12.5715H10.5715C11.8743 12.5715 12.5715 11.8858 12.5715 10.5715V8.28577C12.5715 6.97148 11.8743 6.28577 10.5715 6.28577Z" fill="#D68572"/>
<path d="M19.7143 6.28577H17.4286C16.1257 6.28577 15.4286 6.97148 15.4286 8.28577V10.5715C15.4286 11.8858 16.1257 12.5715 17.4286 12.5715H19.7143C21.0172 12.5715 21.7143 11.8858 21.7143 10.5715V8.28577C21.7143 6.97148 21.0172 6.28577 19.7143 6.28577Z" fill="#D68572"/>
<path d="M10.5715 15.4286H8.28577C6.98291 15.4286 6.28577 16.1143 6.28577 17.4286V19.7143C6.28577 21.0286 6.98291 21.7143 8.28577 21.7143H10.5715C11.8743 21.7143 12.5715 21.0286 12.5715 19.7143V17.4286C12.5715 16.1143 11.8743 15.4286 10.5715 15.4286Z" fill="#D68572"/>
<path d="M19.7143 15.4286H17.4286C16.1257 15.4286 15.4286 16.1143 15.4286 17.4286V19.7143C15.4286 21.0286 16.1257 21.7143 17.4286 21.7143H19.7143C21.0172 21.7143 21.7143 21.0286 21.7143 19.7143V17.4286C21.7143 16.1143 21.0172 15.4286 19.7143 15.4286Z" fill="#D68572"/>
</svg>
