<svg width="29" height="21" viewBox="0 0 29 21" fill="none" xmlns="http://www.w3.org/2000/svg">
<g clip-path="url(#clip0_80_4336)">
<mask id="mask0_80_4336" style="mask-type:alpha" maskUnits="userSpaceOnUse" x="0" y="0" width="29" height="21">
<path d="M25.8333 0.5H3.16667C1.69391 0.5 0.5 1.69391 0.5 3.16667V17.8333C0.5 19.3061 1.69391 20.5 3.16667 20.5H25.8333C27.3061 20.5 28.5 19.3061 28.5 17.8333V3.16667C28.5 1.69391 27.3061 0.5 25.8333 0.5Z" fill="white"/>
</mask>
<g mask="url(#mask0_80_4336)">
<path d="M25.8333 0.5H3.16667C1.69391 0.5 0.5 1.69391 0.5 3.16667V17.8333C0.5 19.3061 1.69391 20.5 3.16667 20.5H25.8333C27.3061 20.5 28.5 19.3061 28.5 17.8333V3.16667C28.5 1.69391 27.3061 0.5 25.8333 0.5Z" fill="white"/>
<path fill-rule="evenodd" clip-rule="evenodd" d="M0.5 0.5H12.5V9.83333H0.5V0.5Z" fill="#444379"/>
<path fill-rule="evenodd" clip-rule="evenodd" d="M1.83334 1.83334V3.16667H3.16668V1.83334H1.83334ZM4.50001 1.83334V3.16667H5.83334V1.83334H4.50001ZM7.16668 1.83334V3.16667H8.50001V1.83334H7.16668ZM9.83334 1.83334V3.16667H11.1667V1.83334H9.83334ZM8.50001 3.16667V4.5H9.83334V3.16667H8.50001ZM5.83334 3.16667V4.5H7.16668V3.16667H5.83334ZM3.16668 3.16667V4.5H4.50001V3.16667H3.16668ZM1.83334 4.5V5.83334H3.16668V4.5H1.83334ZM4.50001 4.5V5.83334H5.83334V4.5H4.50001ZM7.16668 4.5V5.83334H8.50001V4.5H7.16668ZM9.83334 4.5V5.83334H11.1667V4.5H9.83334ZM1.83334 7.16667V8.5H3.16668V7.16667H1.83334ZM4.50001 7.16667V8.5H5.83334V7.16667H4.50001ZM7.16668 7.16667V8.5H8.50001V7.16667H7.16668ZM9.83334 7.16667V8.5H11.1667V7.16667H9.83334ZM8.50001 5.83334V7.16667H9.83334V5.83334H8.50001ZM5.83334 5.83334V7.16667H7.16668V5.83334H5.83334ZM3.16668 5.83334V7.16667H4.50001V5.83334H3.16668Z" fill="#A7B6E7"/>
<path fill-rule="evenodd" clip-rule="evenodd" d="M12.5 0.5V1.83333H28.5V0.5H12.5ZM12.5 3.16667V4.5H28.5V3.16667H12.5ZM12.5 5.83333V7.16667H28.5V5.83333H12.5ZM12.5 8.5V9.83333H28.5V8.5H12.5ZM0.5 11.1667V12.5H28.5V11.1667H0.5ZM0.5 13.8333V15.1667H28.5V13.8333H0.5ZM0.5 16.5V17.8333H28.5V16.5H0.5ZM0.5 19.1667V20.5H28.5V19.1667H0.5Z" fill="#ED4C49"/>
<path d="M25.8333 1.16666H3.16666C2.06209 1.16666 1.16666 2.06209 1.16666 3.16666V17.8333C1.16666 18.9379 2.06209 19.8333 3.16666 19.8333H25.8333C26.9379 19.8333 27.8333 18.9379 27.8333 17.8333V3.16666C27.8333 2.06209 26.9379 1.16666 25.8333 1.16666Z" stroke="black" stroke-opacity="0.1"/>
</g>
</g>
<defs>
<clipPath id="clip0_80_4336">
<rect width="28" height="20" fill="white" transform="translate(0.5 0.5)"/>
</clipPath>
</defs>
</svg>
