<svg width="20" height="20" viewBox="0 0 20 20" fill="none" xmlns="http://www.w3.org/2000/svg">
<path d="M8.95964 14.0503V15.742C8.95964 17.1753 7.6263 18.3336 5.98463 18.3336C4.34296 18.3336 3.00128 17.1753 3.00128 15.742V14.0503C3.00128 15.4836 4.33463 16.5003 5.98463 16.5003C7.6263 16.5003 8.95964 15.4753 8.95964 14.0503Z" stroke="#D68572" stroke-width="1.5" stroke-linecap="round" stroke-linejoin="round"/>
<path d="M8.95834 11.7584C8.95834 12.175 8.84167 12.5584 8.64167 12.8917C8.15001 13.7 7.14166 14.2084 5.975 14.2084C4.80833 14.2084 3.79999 13.6917 3.30832 12.8917C3.10832 12.5584 2.9917 12.175 2.9917 11.7584C2.9917 11.0417 3.32501 10.4 3.85835 9.93336C4.40001 9.45836 5.14165 9.17505 5.96665 9.17505C6.79165 9.17505 7.53335 9.46669 8.07501 9.93336C8.62501 10.3917 8.95834 11.0417 8.95834 11.7584Z" stroke="#D68572" stroke-width="1.5" stroke-linecap="round" stroke-linejoin="round"/>
<path d="M8.95964 11.7583V14.0499C8.95964 15.4833 7.6263 16.4999 5.98463 16.4999C4.34296 16.4999 3.00128 15.4749 3.00128 14.0499V11.7583C3.00128 10.3249 4.33463 9.16663 5.98463 9.16663C6.80963 9.16663 7.55132 9.45827 8.09299 9.92494C8.62632 10.3916 8.95964 11.0416 8.95964 11.7583Z" stroke="#D68572" stroke-width="1.5" stroke-linecap="round" stroke-linejoin="round"/>
<path d="M18.3333 9.14159V10.8583C18.3333 11.3166 17.9667 11.6916 17.5 11.7083H15.8667C14.9667 11.7083 14.1417 11.0499 14.0667 10.1499C14.0167 9.62494 14.2167 9.13327 14.5667 8.79161C14.875 8.47494 15.3 8.29163 15.7667 8.29163H17.5C17.9667 8.30829 18.3333 8.68326 18.3333 9.14159Z" stroke="#D68572" stroke-width="1.5" stroke-linecap="round" stroke-linejoin="round"/>
<path d="M1.66669 8.74996V7.08329C1.66669 4.81663 3.03336 3.23329 5.15836 2.96662C5.37502 2.93329 5.60002 2.91663 5.83335 2.91663H13.3334C13.55 2.91663 13.7584 2.92495 13.9584 2.95828C16.1084 3.20828 17.5 4.79996 17.5 7.08329V8.29164H15.7667C15.3 8.29164 14.875 8.47495 14.5667 8.79162C14.2167 9.13328 14.0167 9.62495 14.0667 10.15C14.1417 11.05 14.9667 11.7083 15.8667 11.7083H17.5V12.9166C17.5 15.4166 15.8334 17.0833 13.3334 17.0833H11.25" stroke="#D68572" stroke-width="1.5" stroke-linecap="round" stroke-linejoin="round"/>
</svg>
